<svg width="376" height="160" viewBox="0 0 376 160" fill="none" xmlns="http://www.w3.org/2000/svg">
<rect x="0.427734" width="375" height="160" rx="5" fill="#FBF5F1"/>
<path d="M26.06 50L30.04 37.16L30.39 35.06L34.17 34.75L38.96 50H35.54L34.38 45.73H30.46L29.33 50H26.06ZM32.42 36.39L31.89 40.1L31.05 43.54H33.79L32.94 40.1L32.42 36.39ZM43.3678 38.74V40.63L44.2678 39.12C44.4811 39.0467 44.6978 38.98 44.9178 38.92C45.1445 38.86 45.3745 38.83 45.6078 38.83C45.8945 38.83 46.1711 38.84 46.4378 38.86C46.7111 38.8733 46.9711 38.9133 47.2178 38.98C47.4645 39.04 47.6978 39.1333 47.9178 39.26C48.1378 39.38 48.3445 39.5467 48.5378 39.76C48.7445 39.9867 48.9045 40.2333 49.0178 40.5C49.1311 40.7667 49.2111 41.0333 49.2578 41.3C49.3111 41.56 49.3411 41.8167 49.3478 42.07C49.3611 42.3167 49.3678 42.5367 49.3678 42.73V50H46.1078V42.43C46.1078 42.1567 46.0811 41.93 46.0278 41.75C45.9811 41.5633 45.9145 41.4167 45.8278 41.31C45.7411 41.1967 45.6345 41.1167 45.5078 41.07C45.3878 41.0233 45.2545 41 45.1078 41C44.9945 41 44.8645 41.02 44.7178 41.06C44.5778 41.1 44.4311 41.1567 44.2778 41.23C44.1245 41.2967 43.9678 41.3833 43.8078 41.49C43.6545 41.5967 43.5078 41.7133 43.3678 41.84V50H40.1078V39.07L43.3678 38.74ZM55.26 46.12C55.26 46.46 55.27 46.7467 55.29 46.98C55.31 47.2067 55.3433 47.39 55.39 47.53C55.4433 47.67 55.51 47.77 55.59 47.83C55.67 47.89 55.77 47.92 55.89 47.92C56.03 47.92 56.1633 47.9067 56.29 47.88C56.4167 47.8533 56.53 47.8233 56.63 47.79C56.75 47.75 56.86 47.7033 56.96 47.65L57.91 49.28C57.83 49.36 57.7067 49.4533 57.54 49.56C57.38 49.66 57.19 49.7567 56.97 49.85C56.75 49.9367 56.5033 50.01 56.23 50.07C55.9633 50.13 55.6867 50.16 55.4 50.16C54.68 50.16 54.1033 50.0467 53.67 49.82C53.2367 49.5933 52.9033 49.2867 52.67 48.9C52.4367 48.5133 52.2833 48.0633 52.21 47.55C52.1367 47.03 52.1 46.48 52.1 45.9V41.24H50.6V39H52.1V37.21L55.22 35.37V39H58.12L57.85 41.24H55.26V46.12ZM62.8278 50H59.6678V39.51L62.8278 39.19V50ZM59.6078 35H62.8878V37.31H59.6078V35ZM68.7739 47.88C68.9672 47.9133 69.1739 47.9433 69.3939 47.97C69.6139 47.99 69.8239 48 70.0239 48C70.4439 48 70.7872 47.8767 71.0539 47.63C71.3272 47.3767 71.5406 47.0567 71.6939 46.67C71.8539 46.2767 71.9639 45.8467 72.0239 45.38C72.0906 44.9067 72.1239 44.4533 72.1239 44.02C72.1239 43.4733 72.0839 43.01 72.0039 42.63C71.9239 42.2433 71.8172 41.93 71.6839 41.69C71.5572 41.45 71.4039 41.2767 71.2239 41.17C71.0506 41.0567 70.8706 41 70.6839 41C70.2772 41 69.9206 41.07 69.6139 41.21C69.3072 41.35 69.0272 41.5267 68.7739 41.74V47.88ZM65.5039 36.02L65.2839 33.99L68.7739 33.68V40.26L69.7439 39.04C69.9372 38.9867 70.1406 38.94 70.3539 38.9C70.5739 38.8533 70.7772 38.83 70.9639 38.83C71.5772 38.83 72.1506 38.9467 72.6839 39.18C73.2239 39.4067 73.6939 39.7433 74.0939 40.19C74.4939 40.63 74.8106 41.1767 75.0439 41.83C75.2772 42.4833 75.3939 43.23 75.3939 44.07C75.3939 44.9833 75.2572 45.8167 74.9839 46.57C74.7106 47.3167 74.3306 47.9567 73.8439 48.49C73.3639 49.0233 72.7872 49.4367 72.1139 49.73C71.4472 50.0167 70.7206 50.16 69.9339 50.16C69.5072 50.16 69.0739 50.1367 68.6339 50.09C68.2006 50.05 67.7839 49.9967 67.3839 49.93C66.9906 49.8633 66.6272 49.79 66.2939 49.71C65.9672 49.6233 65.7039 49.54 65.5039 49.46V36.02ZM80.4161 50H77.2561V39.51L80.4161 39.19V50ZM77.1961 35H80.4761V37.31H77.1961V35ZM91.5222 50H88.1322V48.38L86.9322 50.12C86.8789 50.1333 86.8155 50.1433 86.7422 50.15C86.6689 50.1633 86.5622 50.17 86.4222 50.17C85.8489 50.17 85.3055 50.09 84.7922 49.93C84.2789 49.7633 83.8289 49.5233 83.4422 49.21C83.0555 48.89 82.7455 48.4967 82.5122 48.03C82.2855 47.5633 82.1722 47.0267 82.1722 46.42C82.1722 45.9933 82.2355 45.6067 82.3622 45.26C82.4889 44.9133 82.6622 44.6033 82.8822 44.33C83.1089 44.0567 83.3689 43.82 83.6622 43.62C83.9555 43.42 84.2689 43.2567 84.6022 43.13C84.9422 42.9967 85.2889 42.9 85.6422 42.84C86.0022 42.7733 86.3522 42.74 86.6922 42.74C86.9922 42.74 87.2589 42.75 87.4922 42.77C87.7322 42.79 87.9422 42.8167 88.1222 42.85C88.1155 42.5833 88.0955 42.34 88.0622 42.12C88.0289 41.8933 87.9689 41.6967 87.8822 41.53C87.7955 41.3633 87.6789 41.2333 87.5322 41.14C87.3855 41.0467 87.1989 41 86.9722 41C86.4055 41 85.8622 41.0667 85.3422 41.2C84.8222 41.3267 84.3522 41.4667 83.9322 41.62L82.8922 39.77C83.4122 39.5367 83.9222 39.35 84.4222 39.21C84.7422 39.1167 85.1189 39.03 85.5522 38.95C85.9922 38.87 86.4955 38.83 87.0622 38.83C87.9289 38.83 88.6355 38.9367 89.1822 39.15C89.7355 39.3567 90.1655 39.6533 90.4722 40.04C90.7855 40.42 90.9989 40.88 91.1122 41.42C91.2322 41.9533 91.2922 42.5433 91.2922 43.19V47.95L91.5222 50ZM88.1322 44.85C87.9722 44.83 87.7955 44.8133 87.6022 44.8C87.4155 44.78 87.2355 44.77 87.0622 44.77C86.8222 44.77 86.5855 44.8033 86.3522 44.87C86.1255 44.9367 85.9222 45.0367 85.7422 45.17C85.5622 45.3033 85.4155 45.4733 85.3022 45.68C85.1889 45.8867 85.1322 46.13 85.1322 46.41C85.1322 46.6367 85.1689 46.8467 85.2422 47.04C85.3155 47.2333 85.4122 47.4033 85.5322 47.55C85.6522 47.69 85.7855 47.8 85.9322 47.88C86.0855 47.96 86.2389 48 86.3922 48C86.5855 48 86.7689 47.97 86.9422 47.91C87.1222 47.85 87.2855 47.7767 87.4322 47.69C87.5855 47.5967 87.7189 47.4967 87.8322 47.39C87.9522 47.2833 88.0522 47.1867 88.1322 47.1V44.85ZM99.9961 41.78C99.7894 41.6533 99.5728 41.5433 99.3461 41.45C99.1261 41.35 98.9094 41.2667 98.6961 41.2C98.4894 41.1333 98.2961 41.0833 98.1161 41.05C97.9361 41.0167 97.7928 41 97.6861 41C96.9061 41 96.5161 41.26 96.5161 41.78C96.5161 41.9533 96.5894 42.1067 96.7361 42.24C96.8828 42.3733 97.0761 42.5 97.3161 42.62C97.5561 42.74 97.8294 42.86 98.1361 42.98C98.4494 43.1 98.7661 43.2333 99.0861 43.38C99.4061 43.5267 99.7194 43.69 100.026 43.87C100.339 44.0433 100.616 44.25 100.856 44.49C101.096 44.7233 101.289 44.9933 101.436 45.3C101.583 45.6067 101.656 45.96 101.656 46.36C101.656 47.0533 101.536 47.64 101.296 48.12C101.056 48.6 100.726 48.9933 100.306 49.3C99.8861 49.6067 99.3894 49.83 98.8161 49.97C98.2494 50.1033 97.6394 50.17 96.9861 50.17C96.7328 50.17 96.4361 50.14 96.0961 50.08C95.7561 50.02 95.4094 49.94 95.0561 49.84C94.7094 49.74 94.3728 49.6233 94.0461 49.49C93.7194 49.35 93.4428 49.2 93.2161 49.04L94.2161 47.14C94.4561 47.26 94.7061 47.3733 94.9661 47.48C95.2328 47.5867 95.4928 47.68 95.7461 47.76C95.9994 47.8333 96.2428 47.8933 96.4761 47.94C96.7094 47.98 96.9161 48 97.0961 48C97.2828 48 97.4628 47.9733 97.6361 47.92C97.8161 47.8667 97.9728 47.7867 98.1061 47.68C98.2394 47.5667 98.3461 47.4267 98.4261 47.26C98.5061 47.0867 98.5461 46.88 98.5461 46.64C98.5461 46.4 98.4728 46.1933 98.3261 46.02C98.1861 45.84 97.9961 45.6767 97.7561 45.53C97.5228 45.3833 97.2528 45.2467 96.9461 45.12C96.6461 44.9933 96.3361 44.86 96.0161 44.72C95.7028 44.5733 95.3928 44.4167 95.0861 44.25C94.7861 44.0833 94.5161 43.89 94.2761 43.67C94.0428 43.4433 93.8528 43.1867 93.7061 42.9C93.5661 42.6067 93.4961 42.2633 93.4961 41.87C93.4961 41.33 93.5961 40.8667 93.7961 40.48C94.0028 40.0933 94.2894 39.78 94.6561 39.54C95.0294 39.2933 95.4761 39.1133 95.9961 39C96.5161 38.8867 97.0894 38.83 97.7161 38.83C98.0094 38.83 98.3028 38.86 98.5961 38.92C98.8961 38.9733 99.1861 39.0467 99.4661 39.14C99.7461 39.2267 100.006 39.3267 100.246 39.44C100.493 39.5533 100.706 39.67 100.886 39.79L99.9961 41.78ZM116.582 41.33C116.449 41.2633 116.329 41.21 116.222 41.17C116.116 41.1233 116.009 41.0867 115.902 41.06C115.796 41.0333 115.682 41.0167 115.562 41.01C115.449 41.0033 115.316 41 115.162 41C114.976 41 114.786 41.0467 114.592 41.14C114.406 41.2267 114.222 41.3467 114.042 41.5C113.869 41.6533 113.709 41.83 113.562 42.03C113.416 42.2233 113.292 42.4267 113.192 42.64V50H109.932V39.07L113.192 38.74V41.05L114.132 39C114.239 38.96 114.389 38.9233 114.582 38.89C114.782 38.85 114.969 38.83 115.142 38.83C115.509 38.83 115.809 38.86 116.042 38.92C116.282 38.9733 116.509 39.0533 116.722 39.16L116.582 41.33ZM126.52 48.42C126.273 48.6733 126.007 48.9067 125.72 49.12C125.433 49.3333 125.117 49.5167 124.77 49.67C124.423 49.8233 124.043 49.9433 123.63 50.03C123.217 50.1167 122.76 50.16 122.26 50.16C121.3 50.16 120.48 50.0033 119.8 49.69C119.12 49.3767 118.563 48.96 118.13 48.44C117.703 47.9133 117.39 47.31 117.19 46.63C116.997 45.95 116.9 45.24 116.9 44.5C116.9 44.0267 116.947 43.56 117.04 43.1C117.133 42.6333 117.273 42.1933 117.46 41.78C117.653 41.36 117.89 40.97 118.17 40.61C118.457 40.25 118.79 39.94 119.17 39.68C119.55 39.42 119.977 39.2167 120.45 39.07C120.93 38.9167 121.457 38.84 122.03 38.84C122.83 38.84 123.523 38.96 124.11 39.2C124.697 39.4333 125.18 39.7633 125.56 40.19C125.94 40.61 126.223 41.1167 126.41 41.71C126.597 42.3033 126.69 42.96 126.69 43.68C126.69 43.86 126.677 44.0967 126.65 44.39C126.63 44.6833 126.603 45 126.57 45.34H119.87C119.883 45.7 119.96 46.0433 120.1 46.37C120.24 46.69 120.423 46.97 120.65 47.21C120.883 47.45 121.153 47.6433 121.46 47.79C121.767 47.93 122.1 48 122.46 48C122.753 48 123.03 47.9667 123.29 47.9C123.557 47.8333 123.797 47.7533 124.01 47.66C124.23 47.56 124.423 47.46 124.59 47.36C124.757 47.2533 124.887 47.16 124.98 47.08L126.52 48.42ZM123.85 43.28C123.85 42.9733 123.827 42.6833 123.78 42.41C123.733 42.1367 123.647 41.8967 123.52 41.69C123.393 41.4767 123.22 41.31 123 41.19C122.787 41.0633 122.51 41 122.17 41C121.883 41 121.63 41.05 121.41 41.15C121.197 41.25 121.01 41.3767 120.85 41.53C120.697 41.6767 120.57 41.8333 120.47 42C120.37 42.1667 120.293 42.3133 120.24 42.44L119.33 43.47L121.06 43.29L123.85 43.28ZM135.176 41.86C134.976 41.6667 134.783 41.5133 134.596 41.4C134.416 41.2867 134.243 41.2 134.076 41.14C133.909 41.08 133.743 41.0433 133.576 41.03C133.416 41.01 133.256 41 133.096 41C132.709 41 132.379 41.0933 132.106 41.28C131.839 41.4667 131.619 41.7167 131.446 42.03C131.279 42.3367 131.156 42.6933 131.076 43.1C131.003 43.5067 130.966 43.93 130.966 44.37C130.966 44.83 131.003 45.28 131.076 45.72C131.149 46.1533 131.269 46.54 131.436 46.88C131.609 47.22 131.839 47.4933 132.126 47.7C132.413 47.9 132.769 48 133.196 48C133.369 48 133.556 47.9767 133.756 47.93C133.956 47.8833 134.156 47.82 134.356 47.74C134.563 47.66 134.763 47.5667 134.956 47.46C135.156 47.3533 135.343 47.24 135.516 47.12L136.636 49.07C136.149 49.4033 135.609 49.67 135.016 49.87C134.423 50.07 133.773 50.17 133.066 50.17C132.166 50.17 131.379 50.0067 130.706 49.68C130.033 49.3467 129.469 48.9067 129.016 48.36C128.563 47.8133 128.223 47.1833 127.996 46.47C127.769 45.7567 127.656 45.0167 127.656 44.25C127.656 43.5567 127.766 42.8833 127.986 42.23C128.206 41.5767 128.539 41 128.986 40.5C129.439 39.9933 130.006 39.59 130.686 39.29C131.373 38.9833 132.183 38.83 133.116 38.83C133.836 38.83 134.483 38.95 135.056 39.19C135.629 39.4233 136.173 39.8233 136.686 40.39L135.176 41.86ZM147.116 48.42C146.869 48.6733 146.603 48.9067 146.316 49.12C146.029 49.3333 145.713 49.5167 145.366 49.67C145.019 49.8233 144.639 49.9433 144.226 50.03C143.813 50.1167 143.356 50.16 142.856 50.16C141.896 50.16 141.076 50.0033 140.396 49.69C139.716 49.3767 139.159 48.96 138.726 48.44C138.299 47.9133 137.986 47.31 137.786 46.63C137.593 45.95 137.496 45.24 137.496 44.5C137.496 44.0267 137.543 43.56 137.636 43.1C137.729 42.6333 137.869 42.1933 138.056 41.78C138.249 41.36 138.486 40.97 138.766 40.61C139.053 40.25 139.386 39.94 139.766 39.68C140.146 39.42 140.573 39.2167 141.046 39.07C141.526 38.9167 142.053 38.84 142.626 38.84C143.426 38.84 144.119 38.96 144.706 39.2C145.293 39.4333 145.776 39.7633 146.156 40.19C146.536 40.61 146.819 41.1167 147.006 41.71C147.193 42.3033 147.286 42.96 147.286 43.68C147.286 43.86 147.273 44.0967 147.246 44.39C147.226 44.6833 147.199 45 147.166 45.34H140.466C140.479 45.7 140.556 46.0433 140.696 46.37C140.836 46.69 141.019 46.97 141.246 47.21C141.479 47.45 141.749 47.6433 142.056 47.79C142.363 47.93 142.696 48 143.056 48C143.349 48 143.626 47.9667 143.886 47.9C144.153 47.8333 144.393 47.7533 144.606 47.66C144.826 47.56 145.019 47.46 145.186 47.36C145.353 47.2533 145.483 47.16 145.576 47.08L147.116 48.42ZM144.446 43.28C144.446 42.9733 144.423 42.6833 144.376 42.41C144.329 42.1367 144.243 41.8967 144.116 41.69C143.989 41.4767 143.816 41.31 143.596 41.19C143.383 41.0633 143.106 41 142.766 41C142.479 41 142.226 41.05 142.006 41.15C141.793 41.25 141.606 41.3767 141.446 41.53C141.293 41.6767 141.166 41.8333 141.066 42C140.966 42.1667 140.889 42.3133 140.836 42.44L139.926 43.47L141.656 43.29L144.446 43.28ZM152.312 50H149.152V39.51L152.312 39.19V50ZM149.092 35H152.372V37.31H149.092V35ZM158.308 43L159.048 47L159.768 43L161.058 39.07L164.228 38.71L160.478 50.24L157.308 49.95L153.788 39.07L156.938 38.75L158.308 43ZM174.504 48.42C174.258 48.6733 173.991 48.9067 173.704 49.12C173.418 49.3333 173.101 49.5167 172.754 49.67C172.408 49.8233 172.028 49.9433 171.614 50.03C171.201 50.1167 170.744 50.16 170.244 50.16C169.284 50.16 168.464 50.0033 167.784 49.69C167.104 49.3767 166.548 48.96 166.114 48.44C165.688 47.9133 165.374 47.31 165.174 46.63C164.981 45.95 164.884 45.24 164.884 44.5C164.884 44.0267 164.931 43.56 165.024 43.1C165.118 42.6333 165.258 42.1933 165.444 41.78C165.638 41.36 165.874 40.97 166.154 40.61C166.441 40.25 166.774 39.94 167.154 39.68C167.534 39.42 167.961 39.2167 168.434 39.07C168.914 38.9167 169.441 38.84 170.014 38.84C170.814 38.84 171.508 38.96 172.094 39.2C172.681 39.4333 173.164 39.7633 173.544 40.19C173.924 40.61 174.208 41.1167 174.394 41.71C174.581 42.3033 174.674 42.96 174.674 43.68C174.674 43.86 174.661 44.0967 174.634 44.39C174.614 44.6833 174.588 45 174.554 45.34H167.854C167.868 45.7 167.944 46.0433 168.084 46.37C168.224 46.69 168.408 46.97 168.634 47.21C168.868 47.45 169.138 47.6433 169.444 47.79C169.751 47.93 170.084 48 170.444 48C170.738 48 171.014 47.9667 171.274 47.9C171.541 47.8333 171.781 47.7533 171.994 47.66C172.214 47.56 172.408 47.46 172.574 47.36C172.741 47.2533 172.871 47.16 172.964 47.08L174.504 48.42ZM171.834 43.28C171.834 42.9733 171.811 42.6833 171.764 42.41C171.718 42.1367 171.631 41.8967 171.504 41.69C171.378 41.4767 171.204 41.31 170.984 41.19C170.771 41.0633 170.494 41 170.154 41C169.868 41 169.614 41.05 169.394 41.15C169.181 41.25 168.994 41.3767 168.834 41.53C168.681 41.6767 168.554 41.8333 168.454 42C168.354 42.1667 168.278 42.3133 168.224 42.44L167.314 43.47L169.044 43.29L171.834 43.28ZM182.18 41.78C181.974 41.6533 181.757 41.5433 181.53 41.45C181.31 41.35 181.094 41.2667 180.88 41.2C180.674 41.1333 180.48 41.0833 180.3 41.05C180.12 41.0167 179.977 41 179.87 41C179.09 41 178.7 41.26 178.7 41.78C178.7 41.9533 178.774 42.1067 178.92 42.24C179.067 42.3733 179.26 42.5 179.5 42.62C179.74 42.74 180.014 42.86 180.32 42.98C180.634 43.1 180.95 43.2333 181.27 43.38C181.59 43.5267 181.904 43.69 182.21 43.87C182.524 44.0433 182.8 44.25 183.04 44.49C183.28 44.7233 183.474 44.9933 183.62 45.3C183.767 45.6067 183.84 45.96 183.84 46.36C183.84 47.0533 183.72 47.64 183.48 48.12C183.24 48.6 182.91 48.9933 182.49 49.3C182.07 49.6067 181.574 49.83 181 49.97C180.434 50.1033 179.824 50.17 179.17 50.17C178.917 50.17 178.62 50.14 178.28 50.08C177.94 50.02 177.594 49.94 177.24 49.84C176.894 49.74 176.557 49.6233 176.23 49.49C175.904 49.35 175.627 49.2 175.4 49.04L176.4 47.14C176.64 47.26 176.89 47.3733 177.15 47.48C177.417 47.5867 177.677 47.68 177.93 47.76C178.184 47.8333 178.427 47.8933 178.66 47.94C178.894 47.98 179.1 48 179.28 48C179.467 48 179.647 47.9733 179.82 47.92C180 47.8667 180.157 47.7867 180.29 47.68C180.424 47.5667 180.53 47.4267 180.61 47.26C180.69 47.0867 180.73 46.88 180.73 46.64C180.73 46.4 180.657 46.1933 180.51 46.02C180.37 45.84 180.18 45.6767 179.94 45.53C179.707 45.3833 179.437 45.2467 179.13 45.12C178.83 44.9933 178.52 44.86 178.2 44.72C177.887 44.5733 177.577 44.4167 177.27 44.25C176.97 44.0833 176.7 43.89 176.46 43.67C176.227 43.4433 176.037 43.1867 175.89 42.9C175.75 42.6067 175.68 42.2633 175.68 41.87C175.68 41.33 175.78 40.8667 175.98 40.48C176.187 40.0933 176.474 39.78 176.84 39.54C177.214 39.2933 177.66 39.1133 178.18 39C178.7 38.8867 179.274 38.83 179.9 38.83C180.194 38.83 180.487 38.86 180.78 38.92C181.08 38.9733 181.37 39.0467 181.65 39.14C181.93 39.2267 182.19 39.3267 182.43 39.44C182.677 39.5533 182.89 39.67 183.07 39.79L182.18 41.78ZM195.337 50H192.077V36.21L191.857 34L195.337 33.69V40.48L196.537 38.93C196.717 38.8967 196.897 38.8733 197.077 38.86C197.263 38.84 197.44 38.83 197.607 38.83C198.193 38.83 198.717 38.92 199.177 39.1C199.643 39.2733 200.037 39.53 200.357 39.87C200.677 40.2033 200.92 40.62 201.087 41.12C201.253 41.6133 201.337 42.18 201.337 42.82V50H198.077V42.74C198.077 42.3933 198.047 42.1067 197.987 41.88C197.933 41.6533 197.86 41.4767 197.767 41.35C197.673 41.2167 197.567 41.1267 197.447 41.08C197.327 41.0267 197.203 41 197.077 41C196.93 41 196.777 41.02 196.617 41.06C196.463 41.1 196.307 41.1567 196.147 41.23C195.993 41.2967 195.847 41.3833 195.707 41.49C195.567 41.59 195.443 41.7 195.337 41.82V50ZM208.709 50.17C207.909 50.17 207.179 50.0267 206.519 49.74C205.859 49.4467 205.289 49.0467 204.809 48.54C204.335 48.0267 203.965 47.4233 203.699 46.73C203.439 46.0367 203.309 45.2833 203.309 44.47C203.309 43.6633 203.435 42.9167 203.689 42.23C203.942 41.5367 204.302 40.94 204.769 40.44C205.242 39.9333 205.809 39.54 206.469 39.26C207.135 38.9733 207.882 38.83 208.709 38.83C209.509 38.83 210.239 38.9733 210.899 39.26C211.565 39.54 212.135 39.9333 212.609 40.44C213.089 40.94 213.459 41.5367 213.719 42.23C213.985 42.9167 214.119 43.6633 214.119 44.47C214.119 45.2833 213.992 46.0367 213.739 46.73C213.485 47.4233 213.122 48.0267 212.649 48.54C212.182 49.0467 211.615 49.4467 210.949 49.74C210.282 50.0267 209.535 50.17 208.709 50.17ZM210.859 44.72C210.859 44.2667 210.819 43.82 210.739 43.38C210.659 42.94 210.529 42.5467 210.349 42.2C210.175 41.8467 209.949 41.5633 209.669 41.35C209.395 41.1367 209.062 41.03 208.669 41.03C208.302 41.03 207.985 41.1233 207.719 41.31C207.452 41.49 207.232 41.7333 207.059 42.04C206.892 42.3467 206.769 42.6967 206.689 43.09C206.609 43.4767 206.569 43.8767 206.569 44.29C206.569 44.75 206.609 45.2 206.689 45.64C206.769 46.08 206.895 46.4733 207.069 46.82C207.249 47.16 207.475 47.4367 207.749 47.65C208.022 47.8633 208.352 47.97 208.739 47.97C209.105 47.97 209.422 47.88 209.689 47.7C209.955 47.5133 210.175 47.2667 210.349 46.96C210.522 46.6533 210.649 46.3067 210.729 45.92C210.815 45.5333 210.859 45.1333 210.859 44.72ZM219.021 38.74V40.63L219.921 39.12C220.134 39.0467 220.351 38.98 220.571 38.92C220.798 38.86 221.028 38.83 221.261 38.83C221.548 38.83 221.824 38.84 222.091 38.86C222.364 38.8733 222.624 38.9133 222.871 38.98C223.118 39.04 223.351 39.1333 223.571 39.26C223.791 39.38 223.998 39.5467 224.191 39.76C224.398 39.9867 224.558 40.2333 224.671 40.5C224.784 40.7667 224.864 41.0333 224.911 41.3C224.964 41.56 224.994 41.8167 225.001 42.07C225.014 42.3167 225.021 42.5367 225.021 42.73V50H221.761V42.43C221.761 42.1567 221.734 41.93 221.681 41.75C221.634 41.5633 221.568 41.4167 221.481 41.31C221.394 41.1967 221.288 41.1167 221.161 41.07C221.041 41.0233 220.908 41 220.761 41C220.648 41 220.518 41.02 220.371 41.06C220.231 41.1 220.084 41.1567 219.931 41.23C219.778 41.2967 219.621 41.3833 219.461 41.49C219.308 41.5967 219.161 41.7133 219.021 41.84V50H215.761V39.07L219.021 38.74ZM232.293 50.17C231.493 50.17 230.763 50.0267 230.103 49.74C229.443 49.4467 228.873 49.0467 228.393 48.54C227.92 48.0267 227.55 47.4233 227.283 46.73C227.023 46.0367 226.893 45.2833 226.893 44.47C226.893 43.6633 227.02 42.9167 227.273 42.23C227.526 41.5367 227.886 40.94 228.353 40.44C228.826 39.9333 229.393 39.54 230.053 39.26C230.72 38.9733 231.466 38.83 232.293 38.83C233.093 38.83 233.823 38.9733 234.483 39.26C235.15 39.54 235.72 39.9333 236.193 40.44C236.673 40.94 237.043 41.5367 237.303 42.23C237.57 42.9167 237.703 43.6633 237.703 44.47C237.703 45.2833 237.576 46.0367 237.323 46.73C237.07 47.4233 236.706 48.0267 236.233 48.54C235.766 49.0467 235.2 49.4467 234.533 49.74C233.866 50.0267 233.12 50.17 232.293 50.17ZM234.443 44.72C234.443 44.2667 234.403 43.82 234.323 43.38C234.243 42.94 234.113 42.5467 233.933 42.2C233.76 41.8467 233.533 41.5633 233.253 41.35C232.98 41.1367 232.646 41.03 232.253 41.03C231.886 41.03 231.57 41.1233 231.303 41.31C231.036 41.49 230.816 41.7333 230.643 42.04C230.476 42.3467 230.353 42.6967 230.273 43.09C230.193 43.4767 230.153 43.8767 230.153 44.29C230.153 44.75 230.193 45.2 230.273 45.64C230.353 46.08 230.48 46.4733 230.653 46.82C230.833 47.16 231.06 47.4367 231.333 47.65C231.606 47.8633 231.936 47.97 232.323 47.97C232.69 47.97 233.006 47.88 233.273 47.7C233.54 47.5133 233.76 47.2667 233.933 46.96C234.106 46.6533 234.233 46.3067 234.313 45.92C234.4 45.5333 234.443 45.1333 234.443 44.72ZM245.935 41.33C245.802 41.2633 245.682 41.21 245.575 41.17C245.469 41.1233 245.362 41.0867 245.255 41.06C245.149 41.0333 245.035 41.0167 244.915 41.01C244.802 41.0033 244.669 41 244.515 41C244.329 41 244.139 41.0467 243.945 41.14C243.759 41.2267 243.575 41.3467 243.395 41.5C243.222 41.6533 243.062 41.83 242.915 42.03C242.769 42.2233 242.645 42.4267 242.545 42.64V50H239.285V39.07L242.545 38.74V41.05L243.485 39C243.592 38.96 243.742 38.9233 243.935 38.89C244.135 38.85 244.322 38.83 244.495 38.83C244.862 38.83 245.162 38.86 245.395 38.92C245.635 38.9733 245.862 39.0533 246.075 39.16L245.935 41.33ZM255.583 50H252.193V48.38L250.993 50.12C250.94 50.1333 250.876 50.1433 250.803 50.15C250.73 50.1633 250.623 50.17 250.483 50.17C249.91 50.17 249.366 50.09 248.853 49.93C248.34 49.7633 247.89 49.5233 247.503 49.21C247.116 48.89 246.806 48.4967 246.573 48.03C246.346 47.5633 246.233 47.0267 246.233 46.42C246.233 45.9933 246.296 45.6067 246.423 45.26C246.55 44.9133 246.723 44.6033 246.943 44.33C247.17 44.0567 247.43 43.82 247.723 43.62C248.016 43.42 248.33 43.2567 248.663 43.13C249.003 42.9967 249.35 42.9 249.703 42.84C250.063 42.7733 250.413 42.74 250.753 42.74C251.053 42.74 251.32 42.75 251.553 42.77C251.793 42.79 252.003 42.8167 252.183 42.85C252.176 42.5833 252.156 42.34 252.123 42.12C252.09 41.8933 252.03 41.6967 251.943 41.53C251.856 41.3633 251.74 41.2333 251.593 41.14C251.446 41.0467 251.26 41 251.033 41C250.466 41 249.923 41.0667 249.403 41.2C248.883 41.3267 248.413 41.4667 247.993 41.62L246.953 39.77C247.473 39.5367 247.983 39.35 248.483 39.21C248.803 39.1167 249.18 39.03 249.613 38.95C250.053 38.87 250.556 38.83 251.123 38.83C251.99 38.83 252.696 38.9367 253.243 39.15C253.796 39.3567 254.226 39.6533 254.533 40.04C254.846 40.42 255.06 40.88 255.173 41.42C255.293 41.9533 255.353 42.5433 255.353 43.19V47.95L255.583 50ZM252.193 44.85C252.033 44.83 251.856 44.8133 251.663 44.8C251.476 44.78 251.296 44.77 251.123 44.77C250.883 44.77 250.646 44.8033 250.413 44.87C250.186 44.9367 249.983 45.0367 249.803 45.17C249.623 45.3033 249.476 45.4733 249.363 45.68C249.25 45.8867 249.193 46.13 249.193 46.41C249.193 46.6367 249.23 46.8467 249.303 47.04C249.376 47.2333 249.473 47.4033 249.593 47.55C249.713 47.69 249.846 47.8 249.993 47.88C250.146 47.96 250.3 48 250.453 48C250.646 48 250.83 47.97 251.003 47.91C251.183 47.85 251.346 47.7767 251.493 47.69C251.646 47.5967 251.78 47.4967 251.893 47.39C252.013 47.2833 252.113 47.1867 252.193 47.1V44.85ZM260.731 47.88C260.924 47.9133 261.131 47.9433 261.351 47.97C261.571 47.99 261.781 48 261.981 48C262.401 48 262.744 47.8767 263.011 47.63C263.284 47.3767 263.498 47.0567 263.651 46.67C263.811 46.2767 263.921 45.8467 263.981 45.38C264.048 44.9067 264.081 44.4533 264.081 44.02C264.081 43.4733 264.041 43.01 263.961 42.63C263.881 42.2433 263.774 41.93 263.641 41.69C263.514 41.45 263.361 41.2767 263.181 41.17C263.008 41.0567 262.828 41 262.641 41C262.234 41 261.878 41.07 261.571 41.21C261.264 41.35 260.984 41.5267 260.731 41.74V47.88ZM257.461 36.02L257.241 33.99L260.731 33.68V40.26L261.701 39.04C261.894 38.9867 262.098 38.94 262.311 38.9C262.531 38.8533 262.734 38.83 262.921 38.83C263.534 38.83 264.108 38.9467 264.641 39.18C265.181 39.4067 265.651 39.7433 266.051 40.19C266.451 40.63 266.768 41.1767 267.001 41.83C267.234 42.4833 267.351 43.23 267.351 44.07C267.351 44.9833 267.214 45.8167 266.941 46.57C266.668 47.3167 266.288 47.9567 265.801 48.49C265.321 49.0233 264.744 49.4367 264.071 49.73C263.404 50.0167 262.678 50.16 261.891 50.16C261.464 50.16 261.031 50.1367 260.591 50.09C260.158 50.05 259.741 49.9967 259.341 49.93C258.948 49.8633 258.584 49.79 258.251 49.71C257.924 49.6233 257.661 49.54 257.461 49.46V36.02ZM269.243 36.21L269.033 34L272.513 33.69V45.97C272.513 46.2567 272.523 46.52 272.543 46.76C272.563 47 272.603 47.2067 272.663 47.38C272.73 47.5467 272.823 47.6767 272.943 47.77C273.063 47.8633 273.223 47.91 273.423 47.91C273.516 47.91 273.61 47.9033 273.703 47.89C273.803 47.87 273.896 47.8467 273.983 47.82C274.076 47.7933 274.16 47.77 274.233 47.75C274.306 47.7233 274.366 47.7 274.413 47.68L274.973 49.65C274.9 49.69 274.796 49.74 274.663 49.8C274.53 49.8533 274.373 49.91 274.193 49.97C274.013 50.0233 273.81 50.07 273.583 50.11C273.363 50.15 273.13 50.17 272.883 50.17C272.143 50.17 271.536 50.0633 271.063 49.85C270.59 49.63 270.216 49.33 269.943 48.95C269.676 48.5633 269.493 48.11 269.393 47.59C269.293 47.0633 269.243 46.4967 269.243 45.89V36.21ZM284.765 48.42C284.519 48.6733 284.252 48.9067 283.965 49.12C283.679 49.3333 283.362 49.5167 283.015 49.67C282.669 49.8233 282.289 49.9433 281.875 50.03C281.462 50.1167 281.005 50.16 280.505 50.16C279.545 50.16 278.725 50.0033 278.045 49.69C277.365 49.3767 276.809 48.96 276.375 48.44C275.949 47.9133 275.635 47.31 275.435 46.63C275.242 45.95 275.145 45.24 275.145 44.5C275.145 44.0267 275.192 43.56 275.285 43.1C275.379 42.6333 275.519 42.1933 275.705 41.78C275.899 41.36 276.135 40.97 276.415 40.61C276.702 40.25 277.035 39.94 277.415 39.68C277.795 39.42 278.222 39.2167 278.695 39.07C279.175 38.9167 279.702 38.84 280.275 38.84C281.075 38.84 281.769 38.96 282.355 39.2C282.942 39.4333 283.425 39.7633 283.805 40.19C284.185 40.61 284.469 41.1167 284.655 41.71C284.842 42.3033 284.935 42.96 284.935 43.68C284.935 43.86 284.922 44.0967 284.895 44.39C284.875 44.6833 284.849 45 284.815 45.34H278.115C278.129 45.7 278.205 46.0433 278.345 46.37C278.485 46.69 278.669 46.97 278.895 47.21C279.129 47.45 279.399 47.6433 279.705 47.79C280.012 47.93 280.345 48 280.705 48C280.999 48 281.275 47.9667 281.535 47.9C281.802 47.8333 282.042 47.7533 282.255 47.66C282.475 47.56 282.669 47.46 282.835 47.36C283.002 47.2533 283.132 47.16 283.225 47.08L284.765 48.42ZM282.095 43.28C282.095 42.9733 282.072 42.6833 282.025 42.41C281.979 42.1367 281.892 41.8967 281.765 41.69C281.639 41.4767 281.465 41.31 281.245 41.19C281.032 41.0633 280.755 41 280.415 41C280.129 41 279.875 41.05 279.655 41.15C279.442 41.25 279.255 41.3767 279.095 41.53C278.942 41.6767 278.815 41.8333 278.715 42C278.615 42.1667 278.539 42.3133 278.485 42.44L277.575 43.47L279.305 43.29L282.095 43.28ZM299.604 49.84C299.39 49.9333 299.12 50.01 298.794 50.07C298.474 50.1367 298.12 50.17 297.734 50.17C297.06 50.17 296.434 50.0233 295.854 49.73C295.274 49.43 294.77 49.0267 294.344 48.52C293.917 48.0067 293.58 47.41 293.334 46.73C293.094 46.0433 292.974 45.3167 292.974 44.55C292.974 43.77 293.084 43.0333 293.304 42.34C293.524 41.6467 293.85 41.04 294.284 40.52C294.717 40 295.257 39.59 295.904 39.29C296.55 38.9833 297.304 38.83 298.164 38.83C298.284 38.83 298.384 38.8333 298.464 38.84C298.544 38.84 298.617 38.8467 298.684 38.86L299.594 40.42V38.74L302.854 39.07V50.41C302.854 51.07 302.73 51.6867 302.484 52.26C302.244 52.84 301.897 53.3433 301.444 53.77C300.99 54.2033 300.437 54.5433 299.784 54.79C299.13 55.0433 298.39 55.17 297.564 55.17C297.124 55.17 296.727 55.1333 296.374 55.06C296.027 54.9933 295.704 54.8933 295.404 54.76C295.104 54.6267 294.82 54.46 294.554 54.26C294.294 54.0667 294.034 53.8433 293.774 53.59L295.214 51.92C295.32 52.0133 295.46 52.1167 295.634 52.23C295.807 52.3433 295.997 52.4533 296.204 52.56C296.417 52.6667 296.64 52.7533 296.874 52.82C297.114 52.8933 297.347 52.93 297.574 52.93C297.854 52.93 298.117 52.86 298.364 52.72C298.61 52.5867 298.824 52.4 299.004 52.16C299.19 51.92 299.337 51.6367 299.444 51.31C299.55 50.99 299.604 50.6433 299.604 50.27V49.84ZM299.594 41.8C299.407 41.5867 299.187 41.4 298.934 41.24C298.687 41.08 298.414 41 298.114 41C297.714 41 297.39 41.12 297.144 41.36C296.904 41.6 296.714 41.9033 296.574 42.27C296.44 42.63 296.35 43.0233 296.304 43.45C296.264 43.8767 296.244 44.28 296.244 44.66C296.244 45.1333 296.284 45.5733 296.364 45.98C296.444 46.3867 296.554 46.74 296.694 47.04C296.84 47.34 297.014 47.5767 297.214 47.75C297.414 47.9167 297.637 48 297.884 48C298.277 48 298.607 47.9167 298.874 47.75C299.14 47.5833 299.38 47.3767 299.594 47.13V41.8ZM308.546 50H305.386V39.51L308.546 39.19V50ZM305.326 35H308.606V37.31H305.326V35ZM310.022 39H311.422V37.58C311.422 36.9933 311.492 36.47 311.632 36.01C311.779 35.5433 312.005 35.15 312.312 34.83C312.619 34.5033 313.012 34.2567 313.492 34.09C313.979 33.9167 314.562 33.83 315.242 33.83C315.589 33.83 315.915 33.8633 316.222 33.93C316.529 33.99 316.812 34.0733 317.072 34.18C317.339 34.2867 317.582 34.41 317.802 34.55C318.029 34.69 318.235 34.8367 318.422 34.99L317.062 36.59C316.809 36.41 316.569 36.28 316.342 36.2C316.115 36.1133 315.855 36.07 315.562 36.07C315.269 36.07 315.025 36.1933 314.832 36.44C314.639 36.6867 314.542 37.0967 314.542 37.67V39H317.382L317.112 41.24H314.682V50H311.422V41.24H310.022V39ZM322.39 46.12C322.39 46.46 322.4 46.7467 322.42 46.98C322.44 47.2067 322.473 47.39 322.52 47.53C322.573 47.67 322.64 47.77 322.72 47.83C322.8 47.89 322.9 47.92 323.02 47.92C323.16 47.92 323.293 47.9067 323.42 47.88C323.546 47.8533 323.66 47.8233 323.76 47.79C323.88 47.75 323.99 47.7033 324.09 47.65L325.04 49.28C324.96 49.36 324.836 49.4533 324.67 49.56C324.51 49.66 324.32 49.7567 324.1 49.85C323.88 49.9367 323.633 50.01 323.36 50.07C323.093 50.13 322.816 50.16 322.53 50.16C321.81 50.16 321.233 50.0467 320.8 49.82C320.366 49.5933 320.033 49.2867 319.8 48.9C319.566 48.5133 319.413 48.0633 319.34 47.55C319.266 47.03 319.23 46.48 319.23 45.9V41.24H317.73V39H319.23V37.21L322.35 35.37V39H325.25L324.98 41.24H322.39V46.12ZM30.56 85H27.3V74.07L30.56 73.74V75.63L31.46 74.12C31.6733 74.0467 31.89 73.98 32.11 73.92C32.3367 73.86 32.5667 73.83 32.8 73.83C33.0867 73.83 33.3733 73.8533 33.66 73.9C33.9533 73.9467 34.2267 74.01 34.48 74.09C34.74 74.17 34.9767 74.27 35.19 74.39C35.41 74.5033 35.59 74.63 35.73 74.77C35.8833 74.6633 36.06 74.5533 36.26 74.44C36.4667 74.3267 36.6933 74.2267 36.94 74.14C37.1933 74.0467 37.4633 73.9733 37.75 73.92C38.0367 73.86 38.34 73.83 38.66 73.83C39.2667 73.83 39.81 73.92 40.29 74.1C40.7767 74.28 41.1867 74.5367 41.52 74.87C41.86 75.1967 42.12 75.5967 42.3 76.07C42.48 76.5367 42.57 77.06 42.57 77.64V85H39.31V77.43C39.31 77.1567 39.2767 76.93 39.21 76.75C39.1433 76.5633 39.0533 76.4167 38.94 76.31C38.8333 76.1967 38.71 76.1167 38.57 76.07C38.4367 76.0233 38.2967 76 38.15 76C38.0567 76 37.9467 76.0233 37.82 76.07C37.6933 76.11 37.5567 76.17 37.41 76.25C37.2633 76.3233 37.1133 76.4133 36.96 76.52C36.8067 76.62 36.6633 76.7333 36.53 76.86C36.5433 77.02 36.55 77.16 36.55 77.28C36.5567 77.3933 36.56 77.5433 36.56 77.73V85H33.3V77.43C33.3 77.1567 33.2733 76.93 33.22 76.75C33.1733 76.5633 33.1067 76.4167 33.02 76.31C32.9333 76.1967 32.8267 76.1167 32.7 76.07C32.58 76.0233 32.4467 76 32.3 76C32.1867 76 32.0567 76.02 31.91 76.06C31.77 76.1 31.6233 76.1567 31.47 76.23C31.3167 76.2967 31.16 76.3833 31 76.49C30.8467 76.5967 30.7 76.7133 30.56 76.84V85ZM53.8278 83.42C53.5811 83.6733 53.3145 83.9067 53.0278 84.12C52.7411 84.3333 52.4245 84.5167 52.0778 84.67C51.7311 84.8233 51.3511 84.9433 50.9378 85.03C50.5245 85.1167 50.0678 85.16 49.5678 85.16C48.6078 85.16 47.7878 85.0033 47.1078 84.69C46.4278 84.3767 45.8711 83.96 45.4378 83.44C45.0111 82.9133 44.6978 82.31 44.4978 81.63C44.3045 80.95 44.2078 80.24 44.2078 79.5C44.2078 79.0267 44.2545 78.56 44.3478 78.1C44.4411 77.6333 44.5811 77.1933 44.7678 76.78C44.9611 76.36 45.1978 75.97 45.4778 75.61C45.7645 75.25 46.0978 74.94 46.4778 74.68C46.8578 74.42 47.2845 74.2167 47.7578 74.07C48.2378 73.9167 48.7645 73.84 49.3378 73.84C50.1378 73.84 50.8311 73.96 51.4178 74.2C52.0045 74.4333 52.4878 74.7633 52.8678 75.19C53.2478 75.61 53.5311 76.1167 53.7178 76.71C53.9045 77.3033 53.9978 77.96 53.9978 78.68C53.9978 78.86 53.9845 79.0967 53.9578 79.39C53.9378 79.6833 53.9111 80 53.8778 80.34H47.1778C47.1911 80.7 47.2678 81.0433 47.4078 81.37C47.5478 81.69 47.7311 81.97 47.9578 82.21C48.1911 82.45 48.4611 82.6433 48.7678 82.79C49.0745 82.93 49.4078 83 49.7678 83C50.0611 83 50.3378 82.9667 50.5978 82.9C50.8645 82.8333 51.1045 82.7533 51.3178 82.66C51.5378 82.56 51.7311 82.46 51.8978 82.36C52.0645 82.2533 52.1945 82.16 52.2878 82.08L53.8278 83.42ZM51.1578 78.28C51.1578 77.9733 51.1345 77.6833 51.0878 77.41C51.0411 77.1367 50.9545 76.8967 50.8278 76.69C50.7011 76.4767 50.5278 76.31 50.3078 76.19C50.0945 76.0633 49.8178 76 49.4778 76C49.1911 76 48.9378 76.05 48.7178 76.15C48.5045 76.25 48.3178 76.3767 48.1578 76.53C48.0045 76.6767 47.8778 76.8333 47.7778 77C47.6778 77.1667 47.6011 77.3133 47.5478 77.44L46.6378 78.47L48.3678 78.29L51.1578 78.28ZM59.1639 73.74V75.63L60.0639 74.12C60.2772 74.0467 60.4939 73.98 60.7139 73.92C60.9406 73.86 61.1706 73.83 61.4039 73.83C61.6906 73.83 61.9672 73.84 62.2339 73.86C62.5072 73.8733 62.7672 73.9133 63.0139 73.98C63.2606 74.04 63.4939 74.1333 63.7139 74.26C63.9339 74.38 64.1406 74.5467 64.3339 74.76C64.5406 74.9867 64.7006 75.2333 64.8139 75.5C64.9272 75.7667 65.0072 76.0333 65.0539 76.3C65.1072 76.56 65.1372 76.8167 65.1439 77.07C65.1572 77.3167 65.1639 77.5367 65.1639 77.73V85H61.9039V77.43C61.9039 77.1567 61.8772 76.93 61.8239 76.75C61.7772 76.5633 61.7106 76.4167 61.6239 76.31C61.5372 76.1967 61.4306 76.1167 61.3039 76.07C61.1839 76.0233 61.0506 76 60.9039 76C60.7906 76 60.6606 76.02 60.5139 76.06C60.3739 76.1 60.2272 76.1567 60.0739 76.23C59.9206 76.2967 59.7639 76.3833 59.6039 76.49C59.4506 76.5967 59.3039 76.7133 59.1639 76.84V85H55.9039V74.07L59.1639 73.74ZM71.0561 81.12C71.0561 81.46 71.0661 81.7467 71.0861 81.98C71.1061 82.2067 71.1394 82.39 71.1861 82.53C71.2394 82.67 71.3061 82.77 71.3861 82.83C71.4661 82.89 71.5661 82.92 71.6861 82.92C71.8261 82.92 71.9594 82.9067 72.0861 82.88C72.2128 82.8533 72.3261 82.8233 72.4261 82.79C72.5461 82.75 72.6561 82.7033 72.7561 82.65L73.7061 84.28C73.6261 84.36 73.5028 84.4533 73.3361 84.56C73.1761 84.66 72.9861 84.7567 72.7661 84.85C72.5461 84.9367 72.2994 85.01 72.0261 85.07C71.7594 85.13 71.4828 85.16 71.1961 85.16C70.4761 85.16 69.8994 85.0467 69.4661 84.82C69.0328 84.5933 68.6994 84.2867 68.4661 83.9C68.2328 83.5133 68.0794 83.0633 68.0061 82.55C67.9328 82.03 67.8961 81.48 67.8961 80.9V76.24H66.3961V74H67.8961V72.21L71.0161 70.37V74H73.9161L73.6461 76.24H71.0561V81.12ZM78.6239 85H75.4639V74.51L78.6239 74.19V85ZM75.4039 70H78.6839V72.31H75.4039V70ZM86.04 85.17C85.24 85.17 84.51 85.0267 83.85 84.74C83.19 84.4467 82.62 84.0467 82.14 83.54C81.6667 83.0267 81.2967 82.4233 81.03 81.73C80.77 81.0367 80.64 80.2833 80.64 79.47C80.64 78.6633 80.7667 77.9167 81.02 77.23C81.2733 76.5367 81.6333 75.94 82.1 75.44C82.5733 74.9333 83.14 74.54 83.8 74.26C84.4667 73.9733 85.2133 73.83 86.04 73.83C86.84 73.83 87.57 73.9733 88.23 74.26C88.8967 74.54 89.4667 74.9333 89.94 75.44C90.42 75.94 90.79 76.5367 91.05 77.23C91.3167 77.9167 91.45 78.6633 91.45 79.47C91.45 80.2833 91.3233 81.0367 91.07 81.73C90.8167 82.4233 90.4533 83.0267 89.98 83.54C89.5133 84.0467 88.9467 84.4467 88.28 84.74C87.6133 85.0267 86.8667 85.17 86.04 85.17ZM88.19 79.72C88.19 79.2667 88.15 78.82 88.07 78.38C87.99 77.94 87.86 77.5467 87.68 77.2C87.5067 76.8467 87.28 76.5633 87 76.35C86.7267 76.1367 86.3933 76.03 86 76.03C85.6333 76.03 85.3167 76.1233 85.05 76.31C84.7833 76.49 84.5633 76.7333 84.39 77.04C84.2233 77.3467 84.1 77.6967 84.02 78.09C83.94 78.4767 83.9 78.8767 83.9 79.29C83.9 79.75 83.94 80.2 84.02 80.64C84.1 81.08 84.2267 81.4733 84.4 81.82C84.58 82.16 84.8067 82.4367 85.08 82.65C85.3533 82.8633 85.6833 82.97 86.07 82.97C86.4367 82.97 86.7533 82.88 87.02 82.7C87.2867 82.5133 87.5067 82.2667 87.68 81.96C87.8533 81.6533 87.98 81.3067 88.06 80.92C88.1467 80.5333 88.19 80.1333 88.19 79.72ZM96.3522 73.74V75.63L97.2522 74.12C97.4655 74.0467 97.6822 73.98 97.9022 73.92C98.1289 73.86 98.3589 73.83 98.5922 73.83C98.8789 73.83 99.1555 73.84 99.4222 73.86C99.6955 73.8733 99.9555 73.9133 100.202 73.98C100.449 74.04 100.682 74.1333 100.902 74.26C101.122 74.38 101.329 74.5467 101.522 74.76C101.729 74.9867 101.889 75.2333 102.002 75.5C102.116 75.7667 102.196 76.0333 102.242 76.3C102.296 76.56 102.326 76.8167 102.332 77.07C102.346 77.3167 102.352 77.5367 102.352 77.73V85H99.0922V77.43C99.0922 77.1567 99.0655 76.93 99.0122 76.75C98.9655 76.5633 98.8989 76.4167 98.8122 76.31C98.7255 76.1967 98.6189 76.1167 98.4922 76.07C98.3722 76.0233 98.2389 76 98.0922 76C97.9789 76 97.8489 76.02 97.7022 76.06C97.5622 76.1 97.4155 76.1567 97.2622 76.23C97.1089 76.2967 96.9522 76.3833 96.7922 76.49C96.6389 76.5967 96.4922 76.7133 96.3522 76.84V85H93.0922V74.07L96.3522 73.74ZM120.107 85H116.717V83.38L115.517 85.12C115.463 85.1333 115.4 85.1433 115.327 85.15C115.253 85.1633 115.147 85.17 115.007 85.17C114.433 85.17 113.89 85.09 113.377 84.93C112.863 84.7633 112.413 84.5233 112.027 84.21C111.64 83.89 111.33 83.4967 111.097 83.03C110.87 82.5633 110.757 82.0267 110.757 81.42C110.757 80.9933 110.82 80.6067 110.947 80.26C111.073 79.9133 111.247 79.6033 111.467 79.33C111.693 79.0567 111.953 78.82 112.247 78.62C112.54 78.42 112.853 78.2567 113.187 78.13C113.527 77.9967 113.873 77.9 114.227 77.84C114.587 77.7733 114.937 77.74 115.277 77.74C115.577 77.74 115.843 77.75 116.077 77.77C116.317 77.79 116.527 77.8167 116.707 77.85C116.7 77.5833 116.68 77.34 116.647 77.12C116.613 76.8933 116.553 76.6967 116.467 76.53C116.38 76.3633 116.263 76.2333 116.117 76.14C115.97 76.0467 115.783 76 115.557 76C114.99 76 114.447 76.0667 113.927 76.2C113.407 76.3267 112.937 76.4667 112.517 76.62L111.477 74.77C111.997 74.5367 112.507 74.35 113.007 74.21C113.327 74.1167 113.703 74.03 114.137 73.95C114.577 73.87 115.08 73.83 115.647 73.83C116.513 73.83 117.22 73.9367 117.767 74.15C118.32 74.3567 118.75 74.6533 119.057 75.04C119.37 75.42 119.583 75.88 119.697 76.42C119.817 76.9533 119.877 77.5433 119.877 78.19V82.95L120.107 85ZM116.717 79.85C116.557 79.83 116.38 79.8133 116.187 79.8C116 79.78 115.82 79.77 115.647 79.77C115.407 79.77 115.17 79.8033 114.937 79.87C114.71 79.9367 114.507 80.0367 114.327 80.17C114.147 80.3033 114 80.4733 113.887 80.68C113.773 80.8867 113.717 81.13 113.717 81.41C113.717 81.6367 113.753 81.8467 113.827 82.04C113.9 82.2333 113.997 82.4033 114.117 82.55C114.237 82.69 114.37 82.8 114.517 82.88C114.67 82.96 114.823 83 114.977 83C115.17 83 115.353 82.97 115.527 82.91C115.707 82.85 115.87 82.7767 116.017 82.69C116.17 82.5967 116.303 82.4967 116.417 82.39C116.537 82.2833 116.637 82.1867 116.717 82.1V79.85ZM125.344 81.12C125.344 81.46 125.354 81.7467 125.374 81.98C125.394 82.2067 125.428 82.39 125.474 82.53C125.528 82.67 125.594 82.77 125.674 82.83C125.754 82.89 125.854 82.92 125.974 82.92C126.114 82.92 126.248 82.9067 126.374 82.88C126.501 82.8533 126.614 82.8233 126.714 82.79C126.834 82.75 126.944 82.7033 127.044 82.65L127.994 84.28C127.914 84.36 127.791 84.4533 127.624 84.56C127.464 84.66 127.274 84.7567 127.054 84.85C126.834 84.9367 126.588 85.01 126.314 85.07C126.048 85.13 125.771 85.16 125.484 85.16C124.764 85.16 124.188 85.0467 123.754 84.82C123.321 84.5933 122.988 84.2867 122.754 83.9C122.521 83.5133 122.368 83.0633 122.294 82.55C122.221 82.03 122.184 81.48 122.184 80.9V76.24H120.684V74H122.184V72.21L125.304 70.37V74H128.204L127.934 76.24H125.344V81.12ZM139.984 85H136.474V72.37L136.124 70H146.144L145.874 72.28H139.834L139.984 73.66V75.84H145.114V77.97H139.984V85ZM154.814 85H151.424V83.38L150.224 85.12C150.171 85.1333 150.108 85.1433 150.034 85.15C149.961 85.1633 149.854 85.17 149.714 85.17C149.141 85.17 148.598 85.09 148.084 84.93C147.571 84.7633 147.121 84.5233 146.734 84.21C146.348 83.89 146.038 83.4967 145.804 83.03C145.578 82.5633 145.464 82.0267 145.464 81.42C145.464 80.9933 145.528 80.6067 145.654 80.26C145.781 79.9133 145.954 79.6033 146.174 79.33C146.401 79.0567 146.661 78.82 146.954 78.62C147.248 78.42 147.561 78.2567 147.894 78.13C148.234 77.9967 148.581 77.9 148.934 77.84C149.294 77.7733 149.644 77.74 149.984 77.74C150.284 77.74 150.551 77.75 150.784 77.77C151.024 77.79 151.234 77.8167 151.414 77.85C151.408 77.5833 151.388 77.34 151.354 77.12C151.321 76.8933 151.261 76.6967 151.174 76.53C151.088 76.3633 150.971 76.2333 150.824 76.14C150.678 76.0467 150.491 76 150.264 76C149.698 76 149.154 76.0667 148.634 76.2C148.114 76.3267 147.644 76.4667 147.224 76.62L146.184 74.77C146.704 74.5367 147.214 74.35 147.714 74.21C148.034 74.1167 148.411 74.03 148.844 73.95C149.284 73.87 149.788 73.83 150.354 73.83C151.221 73.83 151.928 73.9367 152.474 74.15C153.028 74.3567 153.458 74.6533 153.764 75.04C154.078 75.42 154.291 75.88 154.404 76.42C154.524 76.9533 154.584 77.5433 154.584 78.19V82.95L154.814 85ZM151.424 79.85C151.264 79.83 151.088 79.8133 150.894 79.8C150.708 79.78 150.528 79.77 150.354 79.77C150.114 79.77 149.878 79.8033 149.644 79.87C149.418 79.9367 149.214 80.0367 149.034 80.17C148.854 80.3033 148.708 80.4733 148.594 80.68C148.481 80.8867 148.424 81.13 148.424 81.41C148.424 81.6367 148.461 81.8467 148.534 82.04C148.608 82.2333 148.704 82.4033 148.824 82.55C148.944 82.69 149.078 82.8 149.224 82.88C149.378 82.96 149.531 83 149.684 83C149.878 83 150.061 82.97 150.234 82.91C150.414 82.85 150.578 82.7767 150.724 82.69C150.878 82.5967 151.011 82.4967 151.124 82.39C151.244 82.2833 151.344 82.1867 151.424 82.1V79.85ZM163.288 76.78C163.082 76.6533 162.865 76.5433 162.638 76.45C162.418 76.35 162.202 76.2667 161.988 76.2C161.782 76.1333 161.588 76.0833 161.408 76.05C161.228 76.0167 161.085 76 160.978 76C160.198 76 159.808 76.26 159.808 76.78C159.808 76.9533 159.882 77.1067 160.028 77.24C160.175 77.3733 160.368 77.5 160.608 77.62C160.848 77.74 161.122 77.86 161.428 77.98C161.742 78.1 162.058 78.2333 162.378 78.38C162.698 78.5267 163.012 78.69 163.318 78.87C163.632 79.0433 163.908 79.25 164.148 79.49C164.388 79.7233 164.582 79.9933 164.728 80.3C164.875 80.6067 164.948 80.96 164.948 81.36C164.948 82.0533 164.828 82.64 164.588 83.12C164.348 83.6 164.018 83.9933 163.598 84.3C163.178 84.6067 162.682 84.83 162.108 84.97C161.542 85.1033 160.932 85.17 160.278 85.17C160.025 85.17 159.728 85.14 159.388 85.08C159.048 85.02 158.702 84.94 158.348 84.84C158.002 84.74 157.665 84.6233 157.338 84.49C157.012 84.35 156.735 84.2 156.508 84.04L157.508 82.14C157.748 82.26 157.998 82.3733 158.258 82.48C158.525 82.5867 158.785 82.68 159.038 82.76C159.292 82.8333 159.535 82.8933 159.768 82.94C160.002 82.98 160.208 83 160.388 83C160.575 83 160.755 82.9733 160.928 82.92C161.108 82.8667 161.265 82.7867 161.398 82.68C161.532 82.5667 161.638 82.4267 161.718 82.26C161.798 82.0867 161.838 81.88 161.838 81.64C161.838 81.4 161.765 81.1933 161.618 81.02C161.478 80.84 161.288 80.6767 161.048 80.53C160.815 80.3833 160.545 80.2467 160.238 80.12C159.938 79.9933 159.628 79.86 159.308 79.72C158.995 79.5733 158.685 79.4167 158.378 79.25C158.078 79.0833 157.808 78.89 157.568 78.67C157.335 78.4433 157.145 78.1867 156.998 77.9C156.858 77.6067 156.788 77.2633 156.788 76.87C156.788 76.33 156.888 75.8667 157.088 75.48C157.295 75.0933 157.582 74.78 157.948 74.54C158.322 74.2933 158.768 74.1133 159.288 74C159.808 73.8867 160.382 73.83 161.008 73.83C161.302 73.83 161.595 73.86 161.888 73.92C162.188 73.9733 162.478 74.0467 162.758 74.14C163.038 74.2267 163.298 74.3267 163.538 74.44C163.785 74.5533 163.998 74.67 164.178 74.79L163.288 76.78ZM169.852 81.12C169.852 81.46 169.862 81.7467 169.882 81.98C169.902 82.2067 169.936 82.39 169.982 82.53C170.036 82.67 170.102 82.77 170.182 82.83C170.262 82.89 170.362 82.92 170.482 82.92C170.622 82.92 170.756 82.9067 170.882 82.88C171.009 82.8533 171.122 82.8233 171.222 82.79C171.342 82.75 171.452 82.7033 171.552 82.65L172.502 84.28C172.422 84.36 172.299 84.4533 172.132 84.56C171.972 84.66 171.782 84.7567 171.562 84.85C171.342 84.9367 171.096 85.01 170.822 85.07C170.556 85.13 170.279 85.16 169.992 85.16C169.272 85.16 168.696 85.0467 168.262 84.82C167.829 84.5933 167.496 84.2867 167.262 83.9C167.029 83.5133 166.876 83.0633 166.802 82.55C166.729 82.03 166.692 81.48 166.692 80.9V76.24H165.192V74H166.692V72.21L169.812 70.37V74H172.712L172.442 76.24H169.852V81.12ZM191.232 83.67C190.559 84.21 189.846 84.5967 189.092 84.83C188.346 85.0567 187.539 85.17 186.672 85.17C185.639 85.17 184.712 84.9633 183.892 84.55C183.072 84.13 182.376 83.5633 181.802 82.85C181.229 82.1367 180.789 81.3033 180.482 80.35C180.182 79.3967 180.032 78.3833 180.032 77.31C180.032 76.3033 180.169 75.3467 180.442 74.44C180.716 73.5333 181.132 72.74 181.692 72.06C182.259 71.3733 182.972 70.83 183.832 70.43C184.692 70.03 185.709 69.83 186.882 69.83C187.742 69.83 188.562 69.98 189.342 70.28C190.129 70.5733 190.816 71 191.402 71.56L189.922 73.3C189.702 73.1533 189.472 73.0133 189.232 72.88C188.992 72.7467 188.746 72.63 188.492 72.53C188.246 72.43 187.999 72.35 187.752 72.29C187.506 72.23 187.269 72.2 187.042 72.2C186.409 72.2 185.869 72.3367 185.422 72.61C184.982 72.8767 184.622 73.2433 184.342 73.71C184.062 74.17 183.856 74.71 183.722 75.33C183.596 75.9433 183.532 76.5933 183.532 77.28C183.532 77.6867 183.559 78.1067 183.612 78.54C183.672 78.9667 183.759 79.3867 183.872 79.8C183.992 80.2067 184.142 80.59 184.322 80.95C184.509 81.31 184.726 81.6267 184.972 81.9C185.226 82.1733 185.512 82.39 185.832 82.55C186.152 82.71 186.512 82.79 186.912 82.79C187.139 82.79 187.362 82.7733 187.582 82.74C187.802 82.7 188.032 82.64 188.272 82.56C188.519 82.4733 188.786 82.3633 189.072 82.23C189.359 82.09 189.682 81.92 190.042 81.72L191.232 83.67ZM197.624 85.17C196.824 85.17 196.094 85.0267 195.434 84.74C194.774 84.4467 194.204 84.0467 193.724 83.54C193.251 83.0267 192.881 82.4233 192.614 81.73C192.354 81.0367 192.224 80.2833 192.224 79.47C192.224 78.6633 192.351 77.9167 192.604 77.23C192.858 76.5367 193.218 75.94 193.684 75.44C194.158 74.9333 194.724 74.54 195.384 74.26C196.051 73.9733 196.798 73.83 197.624 73.83C198.424 73.83 199.154 73.9733 199.814 74.26C200.481 74.54 201.051 74.9333 201.524 75.44C202.004 75.94 202.374 76.5367 202.634 77.23C202.901 77.9167 203.034 78.6633 203.034 79.47C203.034 80.2833 202.908 81.0367 202.654 81.73C202.401 82.4233 202.038 83.0267 201.564 83.54C201.098 84.0467 200.531 84.4467 199.864 84.74C199.198 85.0267 198.451 85.17 197.624 85.17ZM199.774 79.72C199.774 79.2667 199.734 78.82 199.654 78.38C199.574 77.94 199.444 77.5467 199.264 77.2C199.091 76.8467 198.864 76.5633 198.584 76.35C198.311 76.1367 197.978 76.03 197.584 76.03C197.218 76.03 196.901 76.1233 196.634 76.31C196.368 76.49 196.148 76.7333 195.974 77.04C195.808 77.3467 195.684 77.6967 195.604 78.09C195.524 78.4767 195.484 78.8767 195.484 79.29C195.484 79.75 195.524 80.2 195.604 80.64C195.684 81.08 195.811 81.4733 195.984 81.82C196.164 82.16 196.391 82.4367 196.664 82.65C196.938 82.8633 197.268 82.97 197.654 82.97C198.021 82.97 198.338 82.88 198.604 82.7C198.871 82.5133 199.091 82.2667 199.264 81.96C199.438 81.6533 199.564 81.3067 199.644 80.92C199.731 80.5333 199.774 80.1333 199.774 79.72ZM207.937 85H204.677V74.07L207.937 73.74V75.63L208.837 74.12C209.05 74.0467 209.267 73.98 209.487 73.92C209.713 73.86 209.943 73.83 210.177 73.83C210.463 73.83 210.75 73.8533 211.037 73.9C211.33 73.9467 211.603 74.01 211.857 74.09C212.117 74.17 212.353 74.27 212.567 74.39C212.787 74.5033 212.967 74.63 213.107 74.77C213.26 74.6633 213.437 74.5533 213.637 74.44C213.843 74.3267 214.07 74.2267 214.317 74.14C214.57 74.0467 214.84 73.9733 215.127 73.92C215.413 73.86 215.717 73.83 216.037 73.83C216.643 73.83 217.187 73.92 217.667 74.1C218.153 74.28 218.563 74.5367 218.897 74.87C219.237 75.1967 219.497 75.5967 219.677 76.07C219.857 76.5367 219.947 77.06 219.947 77.64V85H216.687V77.43C216.687 77.1567 216.653 76.93 216.587 76.75C216.52 76.5633 216.43 76.4167 216.317 76.31C216.21 76.1967 216.087 76.1167 215.947 76.07C215.813 76.0233 215.673 76 215.527 76C215.433 76 215.323 76.0233 215.197 76.07C215.07 76.11 214.933 76.17 214.787 76.25C214.64 76.3233 214.49 76.4133 214.337 76.52C214.183 76.62 214.04 76.7333 213.907 76.86C213.92 77.02 213.927 77.16 213.927 77.28C213.933 77.3933 213.937 77.5433 213.937 77.73V85H210.677V77.43C210.677 77.1567 210.65 76.93 210.597 76.75C210.55 76.5633 210.483 76.4167 210.397 76.31C210.31 76.1967 210.203 76.1167 210.077 76.07C209.957 76.0233 209.823 76 209.677 76C209.563 76 209.433 76.02 209.287 76.06C209.147 76.1 209 76.1567 208.847 76.23C208.693 76.2967 208.537 76.3833 208.377 76.49C208.223 76.5967 208.077 76.7133 207.937 76.84V85ZM225.944 83H226.724C227.171 83 227.571 82.9033 227.924 82.71C228.278 82.51 228.578 82.24 228.824 81.9C229.071 81.56 229.258 81.1633 229.384 80.71C229.518 80.25 229.584 79.76 229.584 79.24C229.584 78.7 229.528 78.2267 229.414 77.82C229.308 77.4133 229.168 77.0767 228.994 76.81C228.828 76.5367 228.638 76.3333 228.424 76.2C228.218 76.0667 228.014 76 227.814 76C227.634 76 227.454 76.0267 227.274 76.08C227.101 76.1333 226.934 76.2033 226.774 76.29C226.614 76.37 226.464 76.4633 226.324 76.57C226.184 76.6767 226.058 76.7833 225.944 76.89V83ZM222.684 90V74.07L225.944 73.74V75.56L227.184 73.9C227.324 73.88 227.468 73.8633 227.614 73.85C227.768 73.8367 227.924 73.83 228.084 73.83C228.704 73.83 229.284 73.96 229.824 74.22C230.371 74.48 230.844 74.8533 231.244 75.34C231.651 75.82 231.971 76.4 232.204 77.08C232.444 77.76 232.564 78.52 232.564 79.36C232.564 80.18 232.421 80.9367 232.134 81.63C231.854 82.3167 231.451 82.91 230.924 83.41C230.404 83.91 229.774 84.3 229.034 84.58C228.294 84.86 227.468 85 226.554 85H225.944V90H222.684ZM242.707 85H239.317V83.38L238.117 85.12C238.063 85.1333 238 85.1433 237.927 85.15C237.853 85.1633 237.747 85.17 237.607 85.17C237.033 85.17 236.49 85.09 235.977 84.93C235.463 84.7633 235.013 84.5233 234.627 84.21C234.24 83.89 233.93 83.4967 233.697 83.03C233.47 82.5633 233.357 82.0267 233.357 81.42C233.357 80.9933 233.42 80.6067 233.547 80.26C233.673 79.9133 233.847 79.6033 234.067 79.33C234.293 79.0567 234.553 78.82 234.847 78.62C235.14 78.42 235.453 78.2567 235.787 78.13C236.127 77.9967 236.473 77.9 236.827 77.84C237.187 77.7733 237.537 77.74 237.877 77.74C238.177 77.74 238.443 77.75 238.677 77.77C238.917 77.79 239.127 77.8167 239.307 77.85C239.3 77.5833 239.28 77.34 239.247 77.12C239.213 76.8933 239.153 76.6967 239.067 76.53C238.98 76.3633 238.863 76.2333 238.717 76.14C238.57 76.0467 238.383 76 238.157 76C237.59 76 237.047 76.0667 236.527 76.2C236.007 76.3267 235.537 76.4667 235.117 76.62L234.077 74.77C234.597 74.5367 235.107 74.35 235.607 74.21C235.927 74.1167 236.303 74.03 236.737 73.95C237.177 73.87 237.68 73.83 238.247 73.83C239.113 73.83 239.82 73.9367 240.367 74.15C240.92 74.3567 241.35 74.6533 241.657 75.04C241.97 75.42 242.183 75.88 242.297 76.42C242.417 76.9533 242.477 77.5433 242.477 78.19V82.95L242.707 85ZM239.317 79.85C239.157 79.83 238.98 79.8133 238.787 79.8C238.6 79.78 238.42 79.77 238.247 79.77C238.007 79.77 237.77 79.8033 237.537 79.87C237.31 79.9367 237.107 80.0367 236.927 80.17C236.747 80.3033 236.6 80.4733 236.487 80.68C236.373 80.8867 236.317 81.13 236.317 81.41C236.317 81.6367 236.353 81.8467 236.427 82.04C236.5 82.2333 236.597 82.4033 236.717 82.55C236.837 82.69 236.97 82.8 237.117 82.88C237.27 82.96 237.423 83 237.577 83C237.77 83 237.953 82.97 238.127 82.91C238.307 82.85 238.47 82.7767 238.617 82.69C238.77 82.5967 238.903 82.4967 239.017 82.39C239.137 82.2833 239.237 82.1867 239.317 82.1V79.85ZM247.844 73.74V75.63L248.744 74.12C248.958 74.0467 249.174 73.98 249.394 73.92C249.621 73.86 249.851 73.83 250.084 73.83C250.371 73.83 250.648 73.84 250.914 73.86C251.188 73.8733 251.448 73.9133 251.694 73.98C251.941 74.04 252.174 74.1333 252.394 74.26C252.614 74.38 252.821 74.5467 253.014 74.76C253.221 74.9867 253.381 75.2333 253.494 75.5C253.608 75.7667 253.688 76.0333 253.734 76.3C253.788 76.56 253.818 76.8167 253.824 77.07C253.838 77.3167 253.844 77.5367 253.844 77.73V85H250.584V77.43C250.584 77.1567 250.558 76.93 250.504 76.75C250.458 76.5633 250.391 76.4167 250.304 76.31C250.218 76.1967 250.111 76.1167 249.984 76.07C249.864 76.0233 249.731 76 249.584 76C249.471 76 249.341 76.02 249.194 76.06C249.054 76.1 248.908 76.1567 248.754 76.23C248.601 76.2967 248.444 76.3833 248.284 76.49C248.131 76.5967 247.984 76.7133 247.844 76.84V85H244.584V74.07L247.844 73.74ZM259.787 78.3L260.577 83.1L261.347 78.3L262.957 74.05L266.177 73.76L262.097 84.92C261.897 85.4733 261.67 86.0367 261.417 86.61C261.163 87.19 260.87 87.7167 260.537 88.19C260.203 88.6633 259.82 89.05 259.387 89.35C258.96 89.65 258.467 89.8 257.907 89.8C257.46 89.8 257.017 89.7067 256.577 89.52C256.143 89.3333 255.733 89.0733 255.347 88.74L256.577 86.94C256.73 87.04 256.893 87.13 257.067 87.21C257.24 87.2967 257.417 87.34 257.597 87.34C257.883 87.34 258.14 87.1733 258.367 86.84C258.6 86.5067 258.84 86.05 259.087 85.47L254.917 74.07L258.147 73.79L259.787 78.3ZM267.293 71.79C267.293 71.5833 267.329 71.3867 267.403 71.2C267.483 71.0133 267.593 70.85 267.733 70.71C267.873 70.57 268.039 70.46 268.233 70.38C268.426 70.2933 268.639 70.25 268.873 70.25C269.099 70.25 269.313 70.2933 269.513 70.38C269.713 70.46 269.886 70.57 270.033 70.71C270.186 70.85 270.303 71.0133 270.383 71.2C270.469 71.3867 270.513 71.5833 270.513 71.79C270.513 72.03 270.489 72.3 270.443 72.6C270.396 72.8933 270.306 73.2067 270.173 73.54C270.039 73.8667 269.849 74.21 269.603 74.57C269.363 74.9233 269.043 75.2867 268.643 75.66L267.623 75.08C267.696 74.96 267.769 74.8233 267.843 74.67C267.923 74.5167 267.993 74.3567 268.053 74.19C268.119 74.0167 268.176 73.8433 268.223 73.67C268.269 73.4967 268.303 73.33 268.323 73.17C268.189 73.1167 268.059 73.0533 267.933 72.98C267.813 72.9067 267.706 72.8167 267.613 72.71C267.519 72.6033 267.443 72.4767 267.383 72.33C267.323 72.1767 267.293 71.9967 267.293 71.79ZM279.565 76.78C279.358 76.6533 279.142 76.5433 278.915 76.45C278.695 76.35 278.478 76.2667 278.265 76.2C278.058 76.1333 277.865 76.0833 277.685 76.05C277.505 76.0167 277.362 76 277.255 76C276.475 76 276.085 76.26 276.085 76.78C276.085 76.9533 276.158 77.1067 276.305 77.24C276.452 77.3733 276.645 77.5 276.885 77.62C277.125 77.74 277.398 77.86 277.705 77.98C278.018 78.1 278.335 78.2333 278.655 78.38C278.975 78.5267 279.288 78.69 279.595 78.87C279.908 79.0433 280.185 79.25 280.425 79.49C280.665 79.7233 280.858 79.9933 281.005 80.3C281.152 80.6067 281.225 80.96 281.225 81.36C281.225 82.0533 281.105 82.64 280.865 83.12C280.625 83.6 280.295 83.9933 279.875 84.3C279.455 84.6067 278.958 84.83 278.385 84.97C277.818 85.1033 277.208 85.17 276.555 85.17C276.302 85.17 276.005 85.14 275.665 85.08C275.325 85.02 274.978 84.94 274.625 84.84C274.278 84.74 273.942 84.6233 273.615 84.49C273.288 84.35 273.012 84.2 272.785 84.04L273.785 82.14C274.025 82.26 274.275 82.3733 274.535 82.48C274.802 82.5867 275.062 82.68 275.315 82.76C275.568 82.8333 275.812 82.8933 276.045 82.94C276.278 82.98 276.485 83 276.665 83C276.852 83 277.032 82.9733 277.205 82.92C277.385 82.8667 277.542 82.7867 277.675 82.68C277.808 82.5667 277.915 82.4267 277.995 82.26C278.075 82.0867 278.115 81.88 278.115 81.64C278.115 81.4 278.042 81.1933 277.895 81.02C277.755 80.84 277.565 80.6767 277.325 80.53C277.092 80.3833 276.822 80.2467 276.515 80.12C276.215 79.9933 275.905 79.86 275.585 79.72C275.272 79.5733 274.962 79.4167 274.655 79.25C274.355 79.0833 274.085 78.89 273.845 78.67C273.612 78.4433 273.422 78.1867 273.275 77.9C273.135 77.6067 273.065 77.2633 273.065 76.87C273.065 76.33 273.165 75.8667 273.365 75.48C273.572 75.0933 273.858 74.78 274.225 74.54C274.598 74.2933 275.045 74.1133 275.565 74C276.085 73.8867 276.658 73.83 277.285 73.83C277.578 73.83 277.872 73.86 278.165 73.92C278.465 73.9733 278.755 74.0467 279.035 74.14C279.315 74.2267 279.575 74.3267 279.815 74.44C280.062 74.5533 280.275 74.67 280.455 74.79L279.565 76.78ZM292.821 85H289.561V74.07L292.821 73.74V75.63L293.721 74.12C293.934 74.0467 294.151 73.98 294.371 73.92C294.598 73.86 294.828 73.83 295.061 73.83C295.348 73.83 295.634 73.8533 295.921 73.9C296.214 73.9467 296.488 74.01 296.741 74.09C297.001 74.17 297.238 74.27 297.451 74.39C297.671 74.5033 297.851 74.63 297.991 74.77C298.144 74.6633 298.321 74.5533 298.521 74.44C298.728 74.3267 298.954 74.2267 299.201 74.14C299.454 74.0467 299.724 73.9733 300.011 73.92C300.298 73.86 300.601 73.83 300.921 73.83C301.528 73.83 302.071 73.92 302.551 74.1C303.038 74.28 303.448 74.5367 303.781 74.87C304.121 75.1967 304.381 75.5967 304.561 76.07C304.741 76.5367 304.831 77.06 304.831 77.64V85H301.571V77.43C301.571 77.1567 301.538 76.93 301.471 76.75C301.404 76.5633 301.314 76.4167 301.201 76.31C301.094 76.1967 300.971 76.1167 300.831 76.07C300.698 76.0233 300.558 76 300.411 76C300.318 76 300.208 76.0233 300.081 76.07C299.954 76.11 299.818 76.17 299.671 76.25C299.524 76.3233 299.374 76.4133 299.221 76.52C299.068 76.62 298.924 76.7333 298.791 76.86C298.804 77.02 298.811 77.16 298.811 77.28C298.818 77.3933 298.821 77.5433 298.821 77.73V85H295.561V77.43C295.561 77.1567 295.534 76.93 295.481 76.75C295.434 76.5633 295.368 76.4167 295.281 76.31C295.194 76.1967 295.088 76.1167 294.961 76.07C294.841 76.0233 294.708 76 294.561 76C294.448 76 294.318 76.02 294.171 76.06C294.031 76.1 293.884 76.1567 293.731 76.23C293.578 76.2967 293.421 76.3833 293.261 76.49C293.108 76.5967 292.961 76.7133 292.821 76.84V85ZM312.109 85.17C311.309 85.17 310.579 85.0267 309.919 84.74C309.259 84.4467 308.689 84.0467 308.209 83.54C307.735 83.0267 307.365 82.4233 307.099 81.73C306.839 81.0367 306.709 80.2833 306.709 79.47C306.709 78.6633 306.835 77.9167 307.089 77.23C307.342 76.5367 307.702 75.94 308.169 75.44C308.642 74.9333 309.209 74.54 309.869 74.26C310.535 73.9733 311.282 73.83 312.109 73.83C312.909 73.83 313.639 73.9733 314.299 74.26C314.965 74.54 315.535 74.9333 316.009 75.44C316.489 75.94 316.859 76.5367 317.119 77.23C317.385 77.9167 317.519 78.6633 317.519 79.47C317.519 80.2833 317.392 81.0367 317.139 81.73C316.885 82.4233 316.522 83.0267 316.049 83.54C315.582 84.0467 315.015 84.4467 314.349 84.74C313.682 85.0267 312.935 85.17 312.109 85.17ZM314.259 79.72C314.259 79.2667 314.219 78.82 314.139 78.38C314.059 77.94 313.929 77.5467 313.749 77.2C313.575 76.8467 313.349 76.5633 313.069 76.35C312.795 76.1367 312.462 76.03 312.069 76.03C311.702 76.03 311.385 76.1233 311.119 76.31C310.852 76.49 310.632 76.7333 310.459 77.04C310.292 77.3467 310.169 77.6967 310.089 78.09C310.009 78.4767 309.969 78.8767 309.969 79.29C309.969 79.75 310.009 80.2 310.089 80.64C310.169 81.08 310.295 81.4733 310.469 81.82C310.649 82.16 310.875 82.4367 311.149 82.65C311.422 82.8633 311.752 82.97 312.139 82.97C312.505 82.97 312.822 82.88 313.089 82.7C313.355 82.5133 313.575 82.2667 313.749 81.96C313.922 81.6533 314.049 81.3067 314.129 80.92C314.215 80.5333 314.259 80.1333 314.259 79.72ZM324.761 76.78C324.554 76.6533 324.338 76.5433 324.111 76.45C323.891 76.35 323.674 76.2667 323.461 76.2C323.254 76.1333 323.061 76.0833 322.881 76.05C322.701 76.0167 322.558 76 322.451 76C321.671 76 321.281 76.26 321.281 76.78C321.281 76.9533 321.354 77.1067 321.501 77.24C321.648 77.3733 321.841 77.5 322.081 77.62C322.321 77.74 322.594 77.86 322.901 77.98C323.214 78.1 323.531 78.2333 323.851 78.38C324.171 78.5267 324.484 78.69 324.791 78.87C325.104 79.0433 325.381 79.25 325.621 79.49C325.861 79.7233 326.054 79.9933 326.201 80.3C326.348 80.6067 326.421 80.96 326.421 81.36C326.421 82.0533 326.301 82.64 326.061 83.12C325.821 83.6 325.491 83.9933 325.071 84.3C324.651 84.6067 324.154 84.83 323.581 84.97C323.014 85.1033 322.404 85.17 321.751 85.17C321.498 85.17 321.201 85.14 320.861 85.08C320.521 85.02 320.174 84.94 319.821 84.84C319.474 84.74 319.138 84.6233 318.811 84.49C318.484 84.35 318.208 84.2 317.981 84.04L318.981 82.14C319.221 82.26 319.471 82.3733 319.731 82.48C319.998 82.5867 320.258 82.68 320.511 82.76C320.764 82.8333 321.008 82.8933 321.241 82.94C321.474 82.98 321.681 83 321.861 83C322.048 83 322.228 82.9733 322.401 82.92C322.581 82.8667 322.738 82.7867 322.871 82.68C323.004 82.5667 323.111 82.4267 323.191 82.26C323.271 82.0867 323.311 81.88 323.311 81.64C323.311 81.4 323.238 81.1933 323.091 81.02C322.951 80.84 322.761 80.6767 322.521 80.53C322.288 80.3833 322.018 80.2467 321.711 80.12C321.411 79.9933 321.101 79.86 320.781 79.72C320.468 79.5733 320.158 79.4167 319.851 79.25C319.551 79.0833 319.281 78.89 319.041 78.67C318.808 78.4433 318.618 78.1867 318.471 77.9C318.331 77.6067 318.261 77.2633 318.261 76.87C318.261 76.33 318.361 75.8667 318.561 75.48C318.768 75.0933 319.054 74.78 319.421 74.54C319.794 74.2933 320.241 74.1133 320.761 74C321.281 73.8867 321.854 73.83 322.481 73.83C322.774 73.83 323.068 73.86 323.361 73.92C323.661 73.9733 323.951 74.0467 324.231 74.14C324.511 74.2267 324.771 74.3267 325.011 74.44C325.258 74.5533 325.471 74.67 325.651 74.79L324.761 76.78ZM331.325 81.12C331.325 81.46 331.335 81.7467 331.355 81.98C331.375 82.2067 331.408 82.39 331.455 82.53C331.508 82.67 331.575 82.77 331.655 82.83C331.735 82.89 331.835 82.92 331.955 82.92C332.095 82.92 332.228 82.9067 332.355 82.88C332.482 82.8533 332.595 82.8233 332.695 82.79C332.815 82.75 332.925 82.7033 333.025 82.65L333.975 84.28C333.895 84.36 333.772 84.4533 333.605 84.56C333.445 84.66 333.255 84.7567 333.035 84.85C332.815 84.9367 332.568 85.01 332.295 85.07C332.028 85.13 331.752 85.16 331.465 85.16C330.745 85.16 330.168 85.0467 329.735 84.82C329.302 84.5933 328.968 84.2867 328.735 83.9C328.502 83.5133 328.348 83.0633 328.275 82.55C328.202 82.03 328.165 81.48 328.165 80.9V76.24H326.665V74H328.165V72.21L331.285 70.37V74H334.185L333.915 76.24H331.325V81.12ZM27.11 120V107.37L26.78 105.06L30.63 104.75V120H27.11ZM36.3561 108.74V110.63L37.2561 109.12C37.4694 109.047 37.6861 108.98 37.9061 108.92C38.1328 108.86 38.3628 108.83 38.5961 108.83C38.8828 108.83 39.1594 108.84 39.4261 108.86C39.6994 108.873 39.9594 108.913 40.2061 108.98C40.4528 109.04 40.6861 109.133 40.9061 109.26C41.1261 109.38 41.3328 109.547 41.5261 109.76C41.7328 109.987 41.8928 110.233 42.0061 110.5C42.1194 110.767 42.1994 111.033 42.2461 111.3C42.2994 111.56 42.3294 111.817 42.3361 112.07C42.3494 112.317 42.3561 112.537 42.3561 112.73V120H39.0961V112.43C39.0961 112.157 39.0694 111.93 39.0161 111.75C38.9694 111.563 38.9028 111.417 38.8161 111.31C38.7294 111.197 38.6228 111.117 38.4961 111.07C38.3761 111.023 38.2428 111 38.0961 111C37.9828 111 37.8528 111.02 37.7061 111.06C37.5661 111.1 37.4194 111.157 37.2661 111.23C37.1128 111.297 36.9561 111.383 36.7961 111.49C36.6428 111.597 36.4961 111.713 36.3561 111.84V120H33.0961V109.07L36.3561 108.74ZM48.1483 108.74V110.63L49.0483 109.12C49.2616 109.047 49.4783 108.98 49.6983 108.92C49.9249 108.86 50.1549 108.83 50.3883 108.83C50.6749 108.83 50.9516 108.84 51.2183 108.86C51.4916 108.873 51.7516 108.913 51.9983 108.98C52.2449 109.04 52.4783 109.133 52.6983 109.26C52.9183 109.38 53.1249 109.547 53.3183 109.76C53.5249 109.987 53.6849 110.233 53.7983 110.5C53.9116 110.767 53.9916 111.033 54.0383 111.3C54.0916 111.56 54.1216 111.817 54.1283 112.07C54.1416 112.317 54.1483 112.537 54.1483 112.73V120H50.8883V112.43C50.8883 112.157 50.8616 111.93 50.8083 111.75C50.7616 111.563 50.6949 111.417 50.6083 111.31C50.5216 111.197 50.4149 111.117 50.2883 111.07C50.1683 111.023 50.0349 111 49.8883 111C49.7749 111 49.6449 111.02 49.4983 111.06C49.3583 111.1 49.2116 111.157 49.0583 111.23C48.9049 111.297 48.7483 111.383 48.5883 111.49C48.4349 111.597 48.2883 111.713 48.1483 111.84V120H44.8883V109.07L48.1483 108.74ZM61.4205 120.17C60.6205 120.17 59.8905 120.027 59.2305 119.74C58.5705 119.447 58.0005 119.047 57.5205 118.54C57.0471 118.027 56.6771 117.423 56.4105 116.73C56.1505 116.037 56.0205 115.283 56.0205 114.47C56.0205 113.663 56.1471 112.917 56.4005 112.23C56.6538 111.537 57.0138 110.94 57.4805 110.44C57.9538 109.933 58.5205 109.54 59.1805 109.26C59.8471 108.973 60.5938 108.83 61.4205 108.83C62.2205 108.83 62.9505 108.973 63.6105 109.26C64.2771 109.54 64.8471 109.933 65.3205 110.44C65.8005 110.94 66.1705 111.537 66.4305 112.23C66.6971 112.917 66.8305 113.663 66.8305 114.47C66.8305 115.283 66.7038 116.037 66.4505 116.73C66.1971 117.423 65.8338 118.027 65.3605 118.54C64.8938 119.047 64.3271 119.447 63.6605 119.74C62.9938 120.027 62.2471 120.17 61.4205 120.17ZM63.5705 114.72C63.5705 114.267 63.5305 113.82 63.4505 113.38C63.3705 112.94 63.2405 112.547 63.0605 112.2C62.8871 111.847 62.6605 111.563 62.3805 111.35C62.1071 111.137 61.7738 111.03 61.3805 111.03C61.0138 111.03 60.6971 111.123 60.4305 111.31C60.1638 111.49 59.9438 111.733 59.7705 112.04C59.6038 112.347 59.4805 112.697 59.4005 113.09C59.3205 113.477 59.2805 113.877 59.2805 114.29C59.2805 114.75 59.3205 115.2 59.4005 115.64C59.4805 116.08 59.6071 116.473 59.7805 116.82C59.9605 117.16 60.1871 117.437 60.4605 117.65C60.7338 117.863 61.0638 117.97 61.4505 117.97C61.8171 117.97 62.1338 117.88 62.4005 117.7C62.6671 117.513 62.8871 117.267 63.0605 116.96C63.2338 116.653 63.3605 116.307 63.4405 115.92C63.5271 115.533 63.5705 115.133 63.5705 114.72ZM71.7927 113L72.5327 117L73.2527 113L74.5427 109.07L77.7127 108.71L73.9627 120.24L70.7927 119.95L67.2727 109.07L70.4227 108.75L71.7927 113ZM87.6988 120H84.3088V118.38L83.1087 120.12C83.0554 120.133 82.9921 120.143 82.9188 120.15C82.8454 120.163 82.7388 120.17 82.5988 120.17C82.0254 120.17 81.4821 120.09 80.9688 119.93C80.4554 119.763 80.0054 119.523 79.6188 119.21C79.2321 118.89 78.9221 118.497 78.6888 118.03C78.4621 117.563 78.3488 117.027 78.3488 116.42C78.3488 115.993 78.4121 115.607 78.5388 115.26C78.6654 114.913 78.8388 114.603 79.0588 114.33C79.2854 114.057 79.5454 113.82 79.8388 113.62C80.1321 113.42 80.4454 113.257 80.7788 113.13C81.1188 112.997 81.4654 112.9 81.8188 112.84C82.1788 112.773 82.5288 112.74 82.8688 112.74C83.1688 112.74 83.4354 112.75 83.6688 112.77C83.9088 112.79 84.1188 112.817 84.2988 112.85C84.2921 112.583 84.2721 112.34 84.2388 112.12C84.2054 111.893 84.1454 111.697 84.0588 111.53C83.9721 111.363 83.8554 111.233 83.7088 111.14C83.5621 111.047 83.3754 111 83.1488 111C82.5821 111 82.0388 111.067 81.5188 111.2C80.9988 111.327 80.5288 111.467 80.1088 111.62L79.0688 109.77C79.5888 109.537 80.0988 109.35 80.5988 109.21C80.9188 109.117 81.2954 109.03 81.7288 108.95C82.1688 108.87 82.6721 108.83 83.2388 108.83C84.1054 108.83 84.8121 108.937 85.3588 109.15C85.9121 109.357 86.3421 109.653 86.6488 110.04C86.9621 110.42 87.1754 110.88 87.2888 111.42C87.4088 111.953 87.4688 112.543 87.4688 113.19V117.95L87.6988 120ZM84.3088 114.85C84.1488 114.83 83.9721 114.813 83.7788 114.8C83.5921 114.78 83.4121 114.77 83.2388 114.77C82.9988 114.77 82.7621 114.803 82.5288 114.87C82.3021 114.937 82.0988 115.037 81.9188 115.17C81.7388 115.303 81.5921 115.473 81.4788 115.68C81.3654 115.887 81.3088 116.13 81.3088 116.41C81.3088 116.637 81.3454 116.847 81.4188 117.04C81.4921 117.233 81.5888 117.403 81.7088 117.55C81.8288 117.69 81.9621 117.8 82.1088 117.88C82.2621 117.96 82.4154 118 82.5688 118C82.7621 118 82.9454 117.97 83.1188 117.91C83.2988 117.85 83.4621 117.777 83.6088 117.69C83.7621 117.597 83.8954 117.497 84.0088 117.39C84.1288 117.283 84.2288 117.187 84.3088 117.1V114.85ZM92.9366 116.12C92.9366 116.46 92.9466 116.747 92.9666 116.98C92.9866 117.207 93.0199 117.39 93.0666 117.53C93.1199 117.67 93.1866 117.77 93.2666 117.83C93.3466 117.89 93.4466 117.92 93.5666 117.92C93.7066 117.92 93.8399 117.907 93.9666 117.88C94.0932 117.853 94.2066 117.823 94.3066 117.79C94.4266 117.75 94.5366 117.703 94.6366 117.65L95.5866 119.28C95.5066 119.36 95.3832 119.453 95.2166 119.56C95.0566 119.66 94.8666 119.757 94.6466 119.85C94.4266 119.937 94.1799 120.01 93.9066 120.07C93.6399 120.13 93.3632 120.16 93.0766 120.16C92.3566 120.16 91.7799 120.047 91.3466 119.82C90.9132 119.593 90.5799 119.287 90.3466 118.9C90.1132 118.513 89.9599 118.063 89.8866 117.55C89.8132 117.03 89.7766 116.48 89.7766 115.9V111.24H88.2766V109H89.7766V107.21L92.8966 105.37V109H95.7966L95.5266 111.24H92.9366V116.12ZM100.504 120H97.3444V109.51L100.504 109.19V120ZM97.2844 105H100.564V107.31H97.2844V105ZM107.92 120.17C107.12 120.17 106.39 120.027 105.73 119.74C105.07 119.447 104.5 119.047 104.02 118.54C103.547 118.027 103.177 117.423 102.91 116.73C102.65 116.037 102.52 115.283 102.52 114.47C102.52 113.663 102.647 112.917 102.9 112.23C103.154 111.537 103.514 110.94 103.98 110.44C104.454 109.933 105.02 109.54 105.68 109.26C106.347 108.973 107.094 108.83 107.92 108.83C108.72 108.83 109.45 108.973 110.11 109.26C110.777 109.54 111.347 109.933 111.82 110.44C112.3 110.94 112.67 111.537 112.93 112.23C113.197 112.917 113.33 113.663 113.33 114.47C113.33 115.283 113.204 116.037 112.95 116.73C112.697 117.423 112.334 118.027 111.86 118.54C111.394 119.047 110.827 119.447 110.16 119.74C109.494 120.027 108.747 120.17 107.92 120.17ZM110.07 114.72C110.07 114.267 110.03 113.82 109.95 113.38C109.87 112.94 109.74 112.547 109.56 112.2C109.387 111.847 109.16 111.563 108.88 111.35C108.607 111.137 108.274 111.03 107.88 111.03C107.514 111.03 107.197 111.123 106.93 111.31C106.664 111.49 106.444 111.733 106.27 112.04C106.104 112.347 105.98 112.697 105.9 113.09C105.82 113.477 105.78 113.877 105.78 114.29C105.78 114.75 105.82 115.2 105.9 115.64C105.98 116.08 106.107 116.473 106.28 116.82C106.46 117.16 106.687 117.437 106.96 117.65C107.234 117.863 107.564 117.97 107.95 117.97C108.317 117.97 108.634 117.88 108.9 117.7C109.167 117.513 109.387 117.267 109.56 116.96C109.734 116.653 109.86 116.307 109.94 115.92C110.027 115.533 110.07 115.133 110.07 114.72ZM118.233 108.74V110.63L119.133 109.12C119.346 109.047 119.563 108.98 119.783 108.92C120.009 108.86 120.239 108.83 120.473 108.83C120.759 108.83 121.036 108.84 121.303 108.86C121.576 108.873 121.836 108.913 122.083 108.98C122.329 109.04 122.563 109.133 122.783 109.26C123.003 109.38 123.209 109.547 123.403 109.76C123.609 109.987 123.769 110.233 123.883 110.5C123.996 110.767 124.076 111.033 124.123 111.3C124.176 111.56 124.206 111.817 124.213 112.07C124.226 112.317 124.233 112.537 124.233 112.73V120H120.973V112.43C120.973 112.157 120.946 111.93 120.893 111.75C120.846 111.563 120.779 111.417 120.693 111.31C120.606 111.197 120.499 111.117 120.373 111.07C120.253 111.023 120.119 111 119.973 111C119.859 111 119.729 111.02 119.583 111.06C119.443 111.1 119.296 111.157 119.143 111.23C118.989 111.297 118.833 111.383 118.673 111.49C118.519 111.597 118.373 111.713 118.233 111.84V120H114.973V109.07L118.233 108.74ZM136.827 117.88C137.02 117.913 137.227 117.943 137.447 117.97C137.667 117.99 137.877 118 138.077 118C138.497 118 138.84 117.877 139.107 117.63C139.38 117.377 139.594 117.057 139.747 116.67C139.907 116.277 140.017 115.847 140.077 115.38C140.144 114.907 140.177 114.453 140.177 114.02C140.177 113.473 140.137 113.01 140.057 112.63C139.977 112.243 139.87 111.93 139.737 111.69C139.61 111.45 139.457 111.277 139.277 111.17C139.104 111.057 138.924 111 138.737 111C138.33 111 137.974 111.07 137.667 111.21C137.36 111.35 137.08 111.527 136.827 111.74V117.88ZM133.557 106.02L133.337 103.99L136.827 103.68V110.26L137.797 109.04C137.99 108.987 138.194 108.94 138.407 108.9C138.627 108.853 138.83 108.83 139.017 108.83C139.63 108.83 140.204 108.947 140.737 109.18C141.277 109.407 141.747 109.743 142.147 110.19C142.547 110.63 142.864 111.177 143.097 111.83C143.33 112.483 143.447 113.23 143.447 114.07C143.447 114.983 143.31 115.817 143.037 116.57C142.764 117.317 142.384 117.957 141.897 118.49C141.417 119.023 140.84 119.437 140.167 119.73C139.5 120.017 138.774 120.16 137.987 120.16C137.56 120.16 137.127 120.137 136.687 120.09C136.254 120.05 135.837 119.997 135.437 119.93C135.044 119.863 134.68 119.79 134.347 119.71C134.02 119.623 133.757 119.54 133.557 119.46V106.02ZM148.759 113.3L149.549 118.1L150.319 113.3L151.929 109.05L155.149 108.76L151.069 119.92C150.869 120.473 150.643 121.037 150.389 121.61C150.136 122.19 149.843 122.717 149.509 123.19C149.176 123.663 148.793 124.05 148.359 124.35C147.933 124.65 147.439 124.8 146.879 124.8C146.433 124.8 145.989 124.707 145.549 124.52C145.116 124.333 144.706 124.073 144.319 123.74L145.549 121.94C145.703 122.04 145.866 122.13 146.039 122.21C146.213 122.297 146.389 122.34 146.569 122.34C146.856 122.34 147.113 122.173 147.339 121.84C147.573 121.507 147.813 121.05 148.059 120.47L143.889 109.07L147.119 108.79L148.759 113.3ZM162.617 105.07C162.944 105.037 163.291 105.01 163.657 104.99C164.024 104.97 164.384 104.953 164.737 104.94C165.097 104.927 165.434 104.917 165.747 104.91C166.067 104.903 166.337 104.9 166.557 104.9C167.677 104.9 168.711 105.033 169.657 105.3C170.611 105.56 171.434 105.973 172.127 106.54C172.821 107.1 173.364 107.827 173.757 108.72C174.151 109.607 174.347 110.677 174.347 111.93C174.347 112.897 174.251 113.77 174.057 114.55C173.864 115.323 173.591 116.01 173.237 116.61C172.891 117.203 172.474 117.717 171.987 118.15C171.501 118.577 170.964 118.927 170.377 119.2C169.797 119.473 169.177 119.677 168.517 119.81C167.857 119.937 167.177 120 166.477 120H162.957V107.38L162.617 105.07ZM166.467 108.73V117.7C167.167 117.653 167.761 117.533 168.247 117.34C168.741 117.14 169.147 116.893 169.467 116.6C169.794 116.3 170.047 115.967 170.227 115.6C170.414 115.227 170.551 114.843 170.637 114.45C170.731 114.057 170.787 113.67 170.807 113.29C170.827 112.903 170.837 112.547 170.837 112.22C170.837 111.473 170.777 110.787 170.657 110.16C170.544 109.533 170.327 108.993 170.007 108.54C169.687 108.087 169.244 107.737 168.677 107.49C168.111 107.237 167.377 107.11 166.477 107.11H166.367C166.334 107.11 166.297 107.113 166.257 107.12L166.467 108.73ZM184.465 118.42C184.219 118.673 183.952 118.907 183.665 119.12C183.379 119.333 183.062 119.517 182.715 119.67C182.369 119.823 181.989 119.943 181.575 120.03C181.162 120.117 180.705 120.16 180.205 120.16C179.245 120.16 178.425 120.003 177.745 119.69C177.065 119.377 176.509 118.96 176.075 118.44C175.649 117.913 175.335 117.31 175.135 116.63C174.942 115.95 174.845 115.24 174.845 114.5C174.845 114.027 174.892 113.56 174.985 113.1C175.079 112.633 175.219 112.193 175.405 111.78C175.599 111.36 175.835 110.97 176.115 110.61C176.402 110.25 176.735 109.94 177.115 109.68C177.495 109.42 177.922 109.217 178.395 109.07C178.875 108.917 179.402 108.84 179.975 108.84C180.775 108.84 181.469 108.96 182.055 109.2C182.642 109.433 183.125 109.763 183.505 110.19C183.885 110.61 184.169 111.117 184.355 111.71C184.542 112.303 184.635 112.96 184.635 113.68C184.635 113.86 184.622 114.097 184.595 114.39C184.575 114.683 184.549 115 184.515 115.34H177.815C177.829 115.7 177.905 116.043 178.045 116.37C178.185 116.69 178.369 116.97 178.595 117.21C178.829 117.45 179.099 117.643 179.405 117.79C179.712 117.93 180.045 118 180.405 118C180.699 118 180.975 117.967 181.235 117.9C181.502 117.833 181.742 117.753 181.955 117.66C182.175 117.56 182.369 117.46 182.535 117.36C182.702 117.253 182.832 117.16 182.925 117.08L184.465 118.42ZM181.795 113.28C181.795 112.973 181.772 112.683 181.725 112.41C181.679 112.137 181.592 111.897 181.465 111.69C181.339 111.477 181.165 111.31 180.945 111.19C180.732 111.063 180.455 111 180.115 111C179.829 111 179.575 111.05 179.355 111.15C179.142 111.25 178.955 111.377 178.795 111.53C178.642 111.677 178.515 111.833 178.415 112C178.315 112.167 178.239 112.313 178.185 112.44L177.275 113.47L179.005 113.29L181.795 113.28ZM192.141 111.78C191.935 111.653 191.718 111.543 191.491 111.45C191.271 111.35 191.055 111.267 190.841 111.2C190.635 111.133 190.441 111.083 190.261 111.05C190.081 111.017 189.938 111 189.831 111C189.051 111 188.661 111.26 188.661 111.78C188.661 111.953 188.735 112.107 188.881 112.24C189.028 112.373 189.221 112.5 189.461 112.62C189.701 112.74 189.975 112.86 190.281 112.98C190.595 113.1 190.911 113.233 191.231 113.38C191.551 113.527 191.865 113.69 192.171 113.87C192.485 114.043 192.761 114.25 193.001 114.49C193.241 114.723 193.435 114.993 193.581 115.3C193.728 115.607 193.801 115.96 193.801 116.36C193.801 117.053 193.681 117.64 193.441 118.12C193.201 118.6 192.871 118.993 192.451 119.3C192.031 119.607 191.535 119.83 190.961 119.97C190.395 120.103 189.785 120.17 189.131 120.17C188.878 120.17 188.581 120.14 188.241 120.08C187.901 120.02 187.555 119.94 187.201 119.84C186.855 119.74 186.518 119.623 186.191 119.49C185.865 119.35 185.588 119.2 185.361 119.04L186.361 117.14C186.601 117.26 186.851 117.373 187.111 117.48C187.378 117.587 187.638 117.68 187.891 117.76C188.145 117.833 188.388 117.893 188.621 117.94C188.855 117.98 189.061 118 189.241 118C189.428 118 189.608 117.973 189.781 117.92C189.961 117.867 190.118 117.787 190.251 117.68C190.385 117.567 190.491 117.427 190.571 117.26C190.651 117.087 190.691 116.88 190.691 116.64C190.691 116.4 190.618 116.193 190.471 116.02C190.331 115.84 190.141 115.677 189.901 115.53C189.668 115.383 189.398 115.247 189.091 115.12C188.791 114.993 188.481 114.86 188.161 114.72C187.848 114.573 187.538 114.417 187.231 114.25C186.931 114.083 186.661 113.89 186.421 113.67C186.188 113.443 185.998 113.187 185.851 112.9C185.711 112.607 185.641 112.263 185.641 111.87C185.641 111.33 185.741 110.867 185.941 110.48C186.148 110.093 186.435 109.78 186.801 109.54C187.175 109.293 187.621 109.113 188.141 109C188.661 108.887 189.235 108.83 189.861 108.83C190.155 108.83 190.448 108.86 190.741 108.92C191.041 108.973 191.331 109.047 191.611 109.14C191.891 109.227 192.151 109.327 192.391 109.44C192.638 109.553 192.851 109.67 193.031 109.79L192.141 111.78ZM198.465 120H195.305V109.51L198.465 109.19V120ZM195.245 105H198.525V107.31H195.245V105ZM207.111 119.84C206.898 119.933 206.628 120.01 206.301 120.07C205.981 120.137 205.628 120.17 205.241 120.17C204.568 120.17 203.941 120.023 203.361 119.73C202.781 119.43 202.278 119.027 201.851 118.52C201.425 118.007 201.088 117.41 200.841 116.73C200.601 116.043 200.481 115.317 200.481 114.55C200.481 113.77 200.591 113.033 200.811 112.34C201.031 111.647 201.358 111.04 201.791 110.52C202.225 110 202.765 109.59 203.411 109.29C204.058 108.983 204.811 108.83 205.671 108.83C205.791 108.83 205.891 108.833 205.971 108.84C206.051 108.84 206.125 108.847 206.191 108.86L207.101 110.42V108.74L210.361 109.07V120.41C210.361 121.07 210.238 121.687 209.991 122.26C209.751 122.84 209.405 123.343 208.951 123.77C208.498 124.203 207.945 124.543 207.291 124.79C206.638 125.043 205.898 125.17 205.071 125.17C204.631 125.17 204.235 125.133 203.881 125.06C203.535 124.993 203.211 124.893 202.911 124.76C202.611 124.627 202.328 124.46 202.061 124.26C201.801 124.067 201.541 123.843 201.281 123.59L202.721 121.92C202.828 122.013 202.968 122.117 203.141 122.23C203.315 122.343 203.505 122.453 203.711 122.56C203.925 122.667 204.148 122.753 204.381 122.82C204.621 122.893 204.855 122.93 205.081 122.93C205.361 122.93 205.625 122.86 205.871 122.72C206.118 122.587 206.331 122.4 206.511 122.16C206.698 121.92 206.845 121.637 206.951 121.31C207.058 120.99 207.111 120.643 207.111 120.27V119.84ZM207.101 111.8C206.915 111.587 206.695 111.4 206.441 111.24C206.195 111.08 205.921 111 205.621 111C205.221 111 204.898 111.12 204.651 111.36C204.411 111.6 204.221 111.903 204.081 112.27C203.948 112.63 203.858 113.023 203.811 113.45C203.771 113.877 203.751 114.28 203.751 114.66C203.751 115.133 203.791 115.573 203.871 115.98C203.951 116.387 204.061 116.74 204.201 117.04C204.348 117.34 204.521 117.577 204.721 117.75C204.921 117.917 205.145 118 205.391 118C205.785 118 206.115 117.917 206.381 117.75C206.648 117.583 206.888 117.377 207.101 117.13V111.8ZM216.194 108.74V110.63L217.094 109.12C217.307 109.047 217.524 108.98 217.744 108.92C217.97 108.86 218.2 108.83 218.434 108.83C218.72 108.83 218.997 108.84 219.264 108.86C219.537 108.873 219.797 108.913 220.044 108.98C220.29 109.04 220.524 109.133 220.744 109.26C220.964 109.38 221.17 109.547 221.364 109.76C221.57 109.987 221.73 110.233 221.844 110.5C221.957 110.767 222.037 111.033 222.084 111.3C222.137 111.56 222.167 111.817 222.174 112.07C222.187 112.317 222.194 112.537 222.194 112.73V120H218.934V112.43C218.934 112.157 218.907 111.93 218.854 111.75C218.807 111.563 218.74 111.417 218.654 111.31C218.567 111.197 218.46 111.117 218.334 111.07C218.214 111.023 218.08 111 217.934 111C217.82 111 217.69 111.02 217.544 111.06C217.404 111.1 217.257 111.157 217.104 111.23C216.95 111.297 216.794 111.383 216.634 111.49C216.48 111.597 216.334 111.713 216.194 111.84V120H212.934V109.07L216.194 108.74ZM230.278 120L234.258 107.16L234.608 105.06L238.388 104.75L243.178 120H239.758L238.598 115.73H234.678L233.548 120H230.278ZM236.638 106.39L236.108 110.1L235.268 113.54H238.008L237.158 110.1L236.638 106.39ZM252.566 112L253.316 117.28L253.916 112L254.626 109.06L257.676 108.76L254.566 120H251.956L251.206 117L250.536 111.8L249.806 117L249.126 120H246.516L243.506 109.07L246.566 108.74L247.306 112L247.966 117.3L248.666 112L249.406 109H251.876L252.566 112ZM267.556 120H264.166V118.38L262.966 120.12C262.912 120.133 262.849 120.143 262.776 120.15C262.702 120.163 262.596 120.17 262.456 120.17C261.882 120.17 261.339 120.09 260.826 119.93C260.312 119.763 259.862 119.523 259.476 119.21C259.089 118.89 258.779 118.497 258.546 118.03C258.319 117.563 258.206 117.027 258.206 116.42C258.206 115.993 258.269 115.607 258.396 115.26C258.522 114.913 258.696 114.603 258.916 114.33C259.142 114.057 259.402 113.82 259.696 113.62C259.989 113.42 260.302 113.257 260.636 113.13C260.976 112.997 261.322 112.9 261.676 112.84C262.036 112.773 262.386 112.74 262.726 112.74C263.026 112.74 263.292 112.75 263.526 112.77C263.766 112.79 263.976 112.817 264.156 112.85C264.149 112.583 264.129 112.34 264.096 112.12C264.062 111.893 264.002 111.697 263.916 111.53C263.829 111.363 263.712 111.233 263.566 111.14C263.419 111.047 263.232 111 263.006 111C262.439 111 261.896 111.067 261.376 111.2C260.856 111.327 260.386 111.467 259.966 111.62L258.926 109.77C259.446 109.537 259.956 109.35 260.456 109.21C260.776 109.117 261.152 109.03 261.586 108.95C262.026 108.87 262.529 108.83 263.096 108.83C263.962 108.83 264.669 108.937 265.216 109.15C265.769 109.357 266.199 109.653 266.506 110.04C266.819 110.42 267.032 110.88 267.146 111.42C267.266 111.953 267.326 112.543 267.326 113.19V117.95L267.556 120ZM264.166 114.85C264.006 114.83 263.829 114.813 263.636 114.8C263.449 114.78 263.269 114.77 263.096 114.77C262.856 114.77 262.619 114.803 262.386 114.87C262.159 114.937 261.956 115.037 261.776 115.17C261.596 115.303 261.449 115.473 261.336 115.68C261.222 115.887 261.166 116.13 261.166 116.41C261.166 116.637 261.202 116.847 261.276 117.04C261.349 117.233 261.446 117.403 261.566 117.55C261.686 117.69 261.819 117.8 261.966 117.88C262.119 117.96 262.272 118 262.426 118C262.619 118 262.802 117.97 262.976 117.91C263.156 117.85 263.319 117.777 263.466 117.69C263.619 117.597 263.752 117.497 263.866 117.39C263.986 117.283 264.086 117.187 264.166 117.1V114.85ZM276.024 111.33C275.89 111.263 275.77 111.21 275.664 111.17C275.557 111.123 275.45 111.087 275.344 111.06C275.237 111.033 275.124 111.017 275.004 111.01C274.89 111.003 274.757 111 274.604 111C274.417 111 274.227 111.047 274.034 111.14C273.847 111.227 273.664 111.347 273.484 111.5C273.31 111.653 273.15 111.83 273.004 112.03C272.857 112.223 272.734 112.427 272.634 112.64V120H269.374V109.07L272.634 108.74V111.05L273.574 109C273.68 108.96 273.83 108.923 274.024 108.89C274.224 108.85 274.41 108.83 274.584 108.83C274.95 108.83 275.25 108.86 275.484 108.92C275.724 108.973 275.95 109.053 276.164 109.16L276.024 111.33ZM283.281 111H282.591C282.151 111 281.768 111.103 281.441 111.31C281.115 111.517 280.845 111.797 280.631 112.15C280.425 112.503 280.268 112.913 280.161 113.38C280.061 113.847 280.011 114.337 280.011 114.85C280.011 115.343 280.051 115.783 280.131 116.17C280.211 116.557 280.321 116.887 280.461 117.16C280.601 117.433 280.768 117.643 280.961 117.79C281.161 117.93 281.378 118 281.611 118C281.851 118 282.061 117.967 282.241 117.9C282.421 117.827 282.578 117.737 282.711 117.63C282.845 117.517 282.958 117.39 283.051 117.25C283.145 117.11 283.221 116.973 283.281 116.84V111ZM283.281 120V118.38L282.031 120.1C281.978 120.113 281.928 120.123 281.881 120.13C281.835 120.137 281.778 120.143 281.711 120.15C281.651 120.157 281.575 120.16 281.481 120.16C281.395 120.167 281.281 120.17 281.141 120.17C280.528 120.17 279.955 120.037 279.421 119.77C278.888 119.497 278.425 119.117 278.031 118.63C277.638 118.143 277.328 117.57 277.101 116.91C276.875 116.243 276.761 115.513 276.761 114.72C276.761 113.927 276.898 113.183 277.171 112.49C277.445 111.79 277.835 111.183 278.341 110.67C278.848 110.15 279.458 109.743 280.171 109.45C280.891 109.15 281.695 109 282.581 109H283.281V103.68L286.541 104V117.91L286.761 120H283.281ZM294.634 111.78C294.427 111.653 294.21 111.543 293.984 111.45C293.764 111.35 293.547 111.267 293.334 111.2C293.127 111.133 292.934 111.083 292.754 111.05C292.574 111.017 292.43 111 292.324 111C291.544 111 291.154 111.26 291.154 111.78C291.154 111.953 291.227 112.107 291.374 112.24C291.52 112.373 291.714 112.5 291.954 112.62C292.194 112.74 292.467 112.86 292.774 112.98C293.087 113.1 293.404 113.233 293.724 113.38C294.044 113.527 294.357 113.69 294.664 113.87C294.977 114.043 295.254 114.25 295.494 114.49C295.734 114.723 295.927 114.993 296.074 115.3C296.22 115.607 296.294 115.96 296.294 116.36C296.294 117.053 296.174 117.64 295.934 118.12C295.694 118.6 295.364 118.993 294.944 119.3C294.524 119.607 294.027 119.83 293.454 119.97C292.887 120.103 292.277 120.17 291.624 120.17C291.37 120.17 291.074 120.14 290.734 120.08C290.394 120.02 290.047 119.94 289.694 119.84C289.347 119.74 289.01 119.623 288.684 119.49C288.357 119.35 288.08 119.2 287.854 119.04L288.854 117.14C289.094 117.26 289.344 117.373 289.604 117.48C289.87 117.587 290.13 117.68 290.384 117.76C290.637 117.833 290.88 117.893 291.114 117.94C291.347 117.98 291.554 118 291.734 118C291.92 118 292.1 117.973 292.274 117.92C292.454 117.867 292.61 117.787 292.744 117.68C292.877 117.567 292.984 117.427 293.064 117.26C293.144 117.087 293.184 116.88 293.184 116.64C293.184 116.4 293.11 116.193 292.964 116.02C292.824 115.84 292.634 115.677 292.394 115.53C292.16 115.383 291.89 115.247 291.584 115.12C291.284 114.993 290.974 114.86 290.654 114.72C290.34 114.573 290.03 114.417 289.724 114.25C289.424 114.083 289.154 113.89 288.914 113.67C288.68 113.443 288.49 113.187 288.344 112.9C288.204 112.607 288.134 112.263 288.134 111.87C288.134 111.33 288.234 110.867 288.434 110.48C288.64 110.093 288.927 109.78 289.294 109.54C289.667 109.293 290.114 109.113 290.634 109C291.154 108.887 291.727 108.83 292.354 108.83C292.647 108.83 292.94 108.86 293.234 108.92C293.534 108.973 293.824 109.047 294.104 109.14C294.384 109.227 294.644 109.327 294.884 109.44C295.13 109.553 295.344 109.67 295.524 109.79L294.634 111.78Z" fill="#0F2137"/>
</svg>
