<svg width="20" height="21" viewBox="0 0 20 21" fill="none" xmlns="http://www.w3.org/2000/svg">
<path d="M10.0004 1.4624C15.1566 1.4624 19.3285 5.63428 19.3285 10.7827C19.3285 15.9312 15.1566 20.1108 10.0004 20.1108C4.84412 20.1108 0.672241 15.939 0.672241 10.7905C0.672241 5.64209 4.84412 1.4624 10.0004 1.4624Z" fill="#E74D89"/>
<path d="M10 20.7749C4.48438 20.7749 0 16.2983 0 10.7905C0 5.2749 4.48438 0.79834 10 0.79834C15.5156 0.79834 20 5.2749 20 10.7827C20 16.2905 15.5156 20.7749 10 20.7749ZM18.4297 12.1499C18.1406 12.0562 15.7891 11.3608 13.1094 11.7827C14.2266 14.8452 14.6797 17.3452 14.7656 17.8608C16.6875 16.5718 18.0547 14.5249 18.4297 12.1499ZM13.3359 18.6499C13.2109 17.8999 12.7109 15.2905 11.5156 12.1812C11.5 12.189 11.4766 12.1968 11.4609 12.1968C6.64062 13.8765 4.91406 17.2124 4.75781 17.5249C6.20312 18.6499 8.02344 19.3218 10 19.3218C11.1797 19.3296 12.3125 19.0874 13.3359 18.6499ZM3.65625 16.5015C3.85156 16.1733 6.19531 12.2983 10.6016 10.8687C10.7109 10.8296 10.8281 10.7983 10.9375 10.7671C10.7266 10.2827 10.4922 9.79834 10.2422 9.32178C5.97656 10.5952 1.83594 10.5405 1.46094 10.5327C1.46094 10.6187 1.45312 10.7046 1.45312 10.7905C1.46094 12.9858 2.28906 14.9858 3.65625 16.5015ZM1.64062 9.04834C2.02344 9.05615 5.53906 9.07178 9.53906 8.00928C8.125 5.49365 6.59375 3.38428 6.375 3.07959C3.97656 4.20459 2.19531 6.40771 1.64062 9.04834ZM8 2.50146C8.23438 2.81396 9.78906 4.92334 11.1875 7.49365C14.2266 6.35303 15.5078 4.63428 15.6641 4.41553C14.1562 3.07959 12.1719 2.26709 10 2.26709C9.3125 2.26709 8.64062 2.35303 8 2.50146ZM16.6094 5.3999C16.4297 5.64209 15 7.47803 11.8438 8.76709C12.0391 9.17334 12.2344 9.5874 12.4141 10.0015C12.4766 10.1499 12.5391 10.2983 12.6016 10.439C15.4453 10.0796 18.2656 10.6577 18.5469 10.7124C18.5234 8.70459 17.8047 6.85303 16.6094 5.3999Z" fill="#B2215A"/>
</svg>
