<svg width="45" height="50" viewBox="0 0 45 50" fill="none" xmlns="http://www.w3.org/2000/svg">
<path d="M22.4949 49.5403C34.9185 49.5403 44.9898 39.469 44.9898 27.0454C44.9898 14.6218 34.9185 4.55054 22.4949 4.55054C10.0713 4.55054 0 14.6218 0 27.0454C0 39.469 10.0713 49.5403 22.4949 49.5403Z" fill="url(#paint0_radial_1_875)"/>
<g style="mix-blend-mode:screen">
<path d="M22.3933 6.20703C10.8596 6.20703 1.50375 15.5629 1.50375 27.0966C1.50375 31.8921 3.1193 36.3093 5.83913 39.8267C4.07022 36.7592 3.06817 33.2111 3.06817 29.4177C3.06817 17.8839 12.424 8.52809 23.9577 8.52809C30.7062 8.52809 36.698 11.7285 40.5119 16.6876C36.9025 10.4299 30.1438 6.20703 22.3933 6.20703Z" fill="url(#paint1_radial_1_875)"/>
</g>
<path d="M22.4948 38.7326C18.824 38.7326 15.3578 37.3113 12.7402 34.7346C12.3721 34.3665 12.3618 33.7735 12.7299 33.4054C13.098 33.0373 13.6911 33.0271 14.0592 33.3952C16.3189 35.6242 19.325 36.8512 22.4948 36.8512C25.6747 36.8512 28.6707 35.6242 30.9304 33.3952C31.2985 33.0271 31.8915 33.0373 32.2596 33.4054C32.6277 33.7735 32.6175 34.3665 32.2494 34.7346C29.642 37.3113 26.1758 38.7326 22.4948 38.7326Z" fill="url(#paint2_radial_1_875)"/>
<path d="M17.5044 24.6937C17.2692 24.6937 17.0238 24.6016 16.8398 24.4176C16.0525 23.6303 15.1425 23.2213 14.2222 23.2213C13.2917 23.2213 12.3919 23.6303 11.6046 24.4176C11.2365 24.7857 10.6435 24.7857 10.2754 24.4176C9.90727 24.0495 9.90727 23.4564 10.2754 23.0883C11.4206 21.9534 12.7805 21.3501 14.2222 21.3501C15.6537 21.3501 17.0136 21.9534 18.169 23.0883C18.5371 23.4564 18.5371 24.0495 18.169 24.4176C17.985 24.6016 17.7396 24.6937 17.5044 24.6937Z" fill="url(#paint3_linear_1_875)"/>
<path d="M27.4938 24.6937C27.2484 24.6937 27.0132 24.6016 26.8292 24.4176C26.4611 24.0495 26.4611 23.4564 26.8292 23.0883C27.9744 21.9534 29.3343 21.3501 30.776 21.3501C32.2075 21.3501 33.5674 21.9534 34.7229 23.0883C35.091 23.4564 35.091 24.0495 34.7229 24.4176C34.3548 24.7857 33.7617 24.7857 33.3936 24.4176C32.6063 23.6303 31.6963 23.2213 30.776 23.2213C29.8456 23.2213 28.9458 23.6303 28.1584 24.4176C27.9744 24.6016 27.7392 24.6937 27.4938 24.6937Z" fill="url(#paint4_linear_1_875)"/>
<path d="M22.4926 0.000488281C13.11 0.000488281 3 1.40611 3 4.50049C3 7.59487 13.11 9.00049 22.4926 9.00049C31.8751 9.00049 42 7.59487 42 4.50049C42 1.40611 31.89 0.000488281 22.4926 0.000488281ZM34.9482 6.13869C31.6376 6.78588 27.2136 7.14993 22.4926 7.14993C17.7716 7.14993 13.3475 6.79599 10.0369 6.13869C6.77084 5.4915 5.71679 4.7533 5.71679 4.50049C5.71679 4.24768 6.77084 3.50948 10.0518 2.86229C13.3624 2.21509 17.7864 1.85105 22.5074 1.85105C27.2284 1.85105 31.6525 2.20498 34.9631 2.86229C38.2292 3.50948 39.2981 4.23757 39.2981 4.50049C39.2832 4.7533 38.2292 5.4915 34.9482 6.13869Z" fill="url(#paint5_radial_1_875)"/>
<defs>
<radialGradient id="paint0_radial_1_875" cx="0" cy="0" r="1" gradientUnits="userSpaceOnUse" gradientTransform="translate(17.1678 15.2835) scale(35.2548)">
<stop stop-color="#F7E135"/>
<stop offset="0.5" stop-color="#FCBC27"/>
<stop offset="1" stop-color="#FF7E2C"/>
</radialGradient>
<radialGradient id="paint1_radial_1_875" cx="0" cy="0" r="1" gradientUnits="userSpaceOnUse" gradientTransform="translate(2.31011 -4.90672) scale(39.0583)">
<stop stop-color="white"/>
<stop offset="1"/>
</radialGradient>
<radialGradient id="paint2_radial_1_875" cx="0" cy="0" r="1" gradientUnits="userSpaceOnUse" gradientTransform="translate(22.4996 35.9334) scale(7.36688 7.36687)">
<stop stop-color="#372396"/>
<stop offset="1"/>
</radialGradient>
<linearGradient id="paint3_linear_1_875" x1="10.0024" y1="23.0232" x2="18.4398" y2="23.0232" gradientUnits="userSpaceOnUse">
<stop stop-color="#372396"/>
<stop offset="1"/>
</linearGradient>
<linearGradient id="paint4_linear_1_875" x1="26.5578" y1="23.0232" x2="34.9953" y2="23.0232" gradientUnits="userSpaceOnUse">
<stop/>
<stop offset="1" stop-color="#372396"/>
</linearGradient>
<radialGradient id="paint5_radial_1_875" cx="0" cy="0" r="1" gradientUnits="userSpaceOnUse" gradientTransform="translate(22.5677 9.04271) scale(13.6143 9.2735)">
<stop stop-color="#09F5CF"/>
<stop offset="1" stop-color="#00D9FF"/>
</radialGradient>
</defs>
</svg>
