<svg width="20" height="21" viewBox="0 0 20 21" fill="none" xmlns="http://www.w3.org/2000/svg">
<path d="M10.0001 0.79834C4.47791 0.79834 0 5.27542 0 10.7984C0 15.2167 2.86533 18.9652 6.83867 20.2875C7.33844 20.38 7.52192 20.0705 7.52192 19.8064C7.52192 19.568 7.51265 18.7802 7.50834 17.9446C4.72631 18.5495 4.13927 16.7647 4.13927 16.7647C3.68437 15.6089 3.02894 15.3015 3.02894 15.3015C2.12163 14.6808 3.09733 14.6936 3.09733 14.6936C4.10151 14.7641 4.63026 15.7241 4.63026 15.7241C5.52217 17.2529 6.96965 16.8109 7.5403 16.5554C7.63006 15.9091 7.88922 15.4679 8.1752 15.2182C5.95405 14.9653 3.61913 14.1079 3.61913 10.2761C3.61913 9.18435 4.00977 8.29227 4.64947 7.59196C4.54564 7.34009 4.20335 6.32299 4.74635 4.94556C4.74635 4.94556 5.58609 4.67679 7.49708 5.9706C8.29476 5.74903 9.15024 5.63792 10.0001 5.63411C10.8499 5.63792 11.7061 5.74903 12.5052 5.9706C14.4139 4.67679 15.2525 4.94556 15.2525 4.94556C15.7968 6.32299 15.4544 7.34009 15.3505 7.59196C15.9917 8.29227 16.3797 9.18435 16.3797 10.2761C16.3797 14.117 14.0403 14.9627 11.8135 15.2103C12.1722 15.5206 12.4918 16.1292 12.4918 17.0621C12.4918 18.4002 12.4802 19.477 12.4802 19.8064C12.4802 20.0725 12.6602 20.3843 13.1671 20.2861C17.1383 18.9624 20 15.2152 20 10.7984C20 5.27542 15.5227 0.79834 10.0001 0.79834ZM3.74536 15.0437C3.72333 15.0933 3.64517 15.1083 3.57396 15.0741C3.50143 15.0415 3.46069 14.9738 3.48421 14.9239C3.50574 14.8728 3.58406 14.8585 3.65643 14.8928C3.72913 14.9254 3.77053 14.9938 3.74536 15.0437ZM4.23725 15.4826C4.18956 15.5268 4.09633 15.5063 4.03307 15.4364C3.96766 15.3667 3.9554 15.2734 4.00376 15.2286C4.05294 15.1843 4.14336 15.205 4.20893 15.2748C4.27434 15.3453 4.28709 15.4379 4.23725 15.4826ZM4.57471 16.0441C4.51344 16.0867 4.41325 16.0468 4.35132 15.9579C4.29004 15.8689 4.29004 15.7623 4.35264 15.7196C4.41474 15.6769 4.51344 15.7153 4.5762 15.8035C4.6373 15.894 4.6373 16.0006 4.57471 16.0441ZM5.14542 16.6945C5.09061 16.755 4.97386 16.7387 4.88841 16.6563C4.80098 16.5756 4.77663 16.4612 4.83161 16.4008C4.88709 16.3401 5.0045 16.3572 5.09061 16.439C5.17738 16.5195 5.20387 16.6347 5.14542 16.6945ZM5.88301 16.9141C5.85883 16.9924 5.74639 17.028 5.63312 16.9947C5.52002 16.9605 5.446 16.8687 5.46885 16.7896C5.49237 16.7107 5.6053 16.6736 5.7194 16.7092C5.83234 16.7434 5.90652 16.8344 5.88301 16.9141ZM6.72242 17.0072C6.72523 17.0897 6.62919 17.1581 6.51029 17.1596C6.39073 17.1622 6.29402 17.0955 6.29269 17.0143C6.29269 16.931 6.38659 16.8633 6.50615 16.8613C6.62505 16.859 6.72242 16.9252 6.72242 17.0072ZM7.54704 16.9756C7.56128 17.0561 7.47865 17.1387 7.36058 17.1607C7.2445 17.1819 7.13702 17.1323 7.12229 17.0524C7.10788 16.97 7.192 16.8873 7.30792 16.866C7.42616 16.8454 7.53197 16.8938 7.54704 16.9756Z" fill="#161614"/>
</svg>
