<svg width="50" height="20" viewBox="0 0 50 20" fill="none" xmlns="http://www.w3.org/2000/svg">
<path d="M18.0952 3.98827C17.4294 4.31462 16.714 4.53518 15.963 4.63438C16.7295 4.12654 17.3181 3.32241 17.5953 2.36429C16.878 2.83446 16.0835 3.17595 15.2379 3.36001C14.5606 2.56254 13.5958 2.06421 12.5281 2.06421C10.4778 2.06421 8.8155 3.90136 8.8155 6.16736C8.8155 6.48895 8.84839 6.80213 8.91167 7.10243C5.82623 6.93132 3.09073 5.29776 1.2597 2.8153C0.94014 3.42132 0.757062 4.12617 0.757062 4.87814C0.757062 6.30167 1.41253 7.55761 2.40866 8.29341C1.80006 8.27212 1.22766 8.08755 0.727079 7.78022C0.726814 7.79734 0.726815 7.81453 0.726815 7.83179C0.726815 9.81987 2.0065 11.4783 3.70483 11.8552C3.39328 11.949 3.06532 11.9991 2.7267 11.9991C2.48749 11.9991 2.25491 11.9734 2.02828 11.9255C2.50066 13.5557 3.87169 14.742 5.49622 14.7751C4.22566 15.8756 2.6249 16.5316 0.8856 16.5316C0.585966 16.5316 0.290435 16.5122 0 16.4743C1.64293 17.6385 3.59436 18.3178 5.69088 18.3178C12.5194 18.3178 16.2535 12.0654 16.2535 6.64316C16.2535 6.46525 16.2499 6.28828 16.2428 6.11235C16.9681 5.53383 17.5975 4.81113 18.0952 3.98827Z" fill="#55ACEE"/>
<path d="M40.7144 0C35.7181 0 31.6667 4.47709 31.6667 10.0001C31.6667 14.4184 34.2591 18.1668 37.854 19.4891C38.3062 19.5817 38.4722 19.2722 38.4722 19.0081C38.4722 18.7696 38.4638 17.9819 38.4599 17.1463C35.9429 17.7512 35.4117 15.9664 35.4117 15.9664C35.0002 14.8105 34.4071 14.5032 34.4071 14.5032C33.5862 13.8825 34.469 13.8953 34.469 13.8953C35.3776 13.9658 35.856 14.9258 35.856 14.9258C36.6629 16.4546 37.9725 16.0126 38.4888 15.7571C38.5701 15.1107 38.8045 14.6696 39.0633 14.4199C37.0537 14.167 34.9411 13.3095 34.9411 9.47779C34.9411 8.38601 35.2946 7.49394 35.8733 6.79362C35.7794 6.54175 35.4697 5.52465 35.961 4.14722C35.961 4.14722 36.7208 3.87845 38.4497 5.17226C39.1715 4.95069 39.9455 4.83958 40.7144 4.83577C41.4833 4.83958 42.2579 4.95069 42.9809 5.17226C44.7078 3.87845 45.4665 4.14722 45.4665 4.14722C45.959 5.52465 45.6492 6.54175 45.5552 6.79362C46.1354 7.49394 46.4864 8.38601 46.4864 9.47779C46.4864 13.3187 44.3698 14.1644 42.3551 14.4119C42.6796 14.7223 42.9688 15.3308 42.9688 16.2638C42.9688 17.6018 42.9583 18.6787 42.9583 19.0081C42.9583 19.2742 43.1212 19.586 43.5798 19.4878C47.1728 18.164 49.7619 14.4169 49.7619 10.0001C49.7619 4.47709 45.7111 0 40.7144 0ZM35.0553 14.2453C35.0354 14.295 34.9647 14.3099 34.9003 14.2758C34.8346 14.2432 34.7978 14.1754 34.8191 14.1256C34.8385 14.0744 34.9094 14.0602 34.9749 14.0945C35.0406 14.1271 35.0781 14.1955 35.0553 14.2453ZM35.5004 14.6842C35.4572 14.7285 35.3729 14.7079 35.3156 14.638C35.2565 14.5683 35.2454 14.4751 35.2891 14.4302C35.3336 14.386 35.4154 14.4067 35.4748 14.4764C35.5339 14.547 35.5455 14.6395 35.5004 14.6842ZM35.8057 15.2458C35.7503 15.2884 35.6596 15.2485 35.6036 15.1595C35.5481 15.0706 35.5481 14.964 35.6048 14.9212C35.661 14.8785 35.7503 14.9169 35.807 15.0052C35.8623 15.0956 35.8623 15.2023 35.8057 15.2458ZM36.3221 15.8962C36.2725 15.9566 36.1668 15.9404 36.0895 15.8579C36.0104 15.7773 35.9884 15.6629 36.0381 15.6024C36.0883 15.5418 36.1945 15.5589 36.2725 15.6407C36.351 15.7211 36.3749 15.8364 36.3221 15.8962ZM36.9894 16.1157C36.9675 16.1941 36.8658 16.2297 36.7633 16.1964C36.661 16.1621 36.594 16.0704 36.6147 15.9912C36.636 15.9124 36.7381 15.8753 36.8414 15.9109C36.9435 15.945 37.0107 16.0361 36.9894 16.1157ZM37.7489 16.2089C37.7514 16.2913 37.6645 16.3597 37.5569 16.3612C37.4488 16.3639 37.3613 16.2971 37.3601 16.216C37.3601 16.1327 37.445 16.065 37.5532 16.063C37.6608 16.0607 37.7489 16.1269 37.7489 16.2089ZM38.4949 16.1773C38.5078 16.2577 38.4331 16.3404 38.3262 16.3624C38.2212 16.3836 38.124 16.3339 38.1106 16.2541C38.0976 16.1716 38.1737 16.089 38.2786 16.0676C38.3856 16.0471 38.4813 16.0955 38.4949 16.1773Z" fill="#161614"/>
</svg>
