<svg width="50" height="20" viewBox="0 0 50 20" fill="none" xmlns="http://www.w3.org/2000/svg">
<path d="M18.0952 3.98827C17.4294 4.31462 16.714 4.53518 15.963 4.63438C16.7295 4.12654 17.3181 3.32241 17.5953 2.36429C16.878 2.83446 16.0835 3.17595 15.2379 3.36001C14.5606 2.56254 13.5958 2.06421 12.5281 2.06421C10.4778 2.06421 8.8155 3.90136 8.8155 6.16736C8.8155 6.48895 8.84839 6.80213 8.91167 7.10243C5.82623 6.93132 3.09073 5.29776 1.2597 2.8153C0.94014 3.42132 0.757062 4.12617 0.757062 4.87814C0.757062 6.30167 1.41253 7.55761 2.40866 8.29341C1.80006 8.27212 1.22766 8.08755 0.727079 7.78022C0.726814 7.79734 0.726815 7.81453 0.726815 7.83179C0.726815 9.81987 2.0065 11.4783 3.70483 11.8552C3.39328 11.949 3.06532 11.9991 2.7267 11.9991C2.48749 11.9991 2.25491 11.9734 2.02828 11.9255C2.50066 13.5557 3.87169 14.742 5.49622 14.7751C4.22566 15.8756 2.6249 16.5316 0.8856 16.5316C0.585966 16.5316 0.290435 16.5122 0 16.4743C1.64293 17.6385 3.59436 18.3178 5.69088 18.3178C12.5194 18.3178 16.2535 12.0654 16.2535 6.64316C16.2535 6.46525 16.2499 6.28828 16.2428 6.11235C16.9681 5.53383 17.5975 4.81113 18.0952 3.98827Z" fill="#55ACEE"/>
<path d="M40.7149 0.664062C45.3801 0.664062 49.1547 4.83594 49.1547 9.98438C49.1547 15.1328 45.3801 19.3125 40.7149 19.3125C36.0498 19.3125 32.2752 15.1406 32.2752 9.99219C32.2752 4.84375 36.0498 0.664062 40.7149 0.664062Z" fill="#E74D89"/>
<path d="M40.7143 19.9766C35.724 19.9766 31.6667 15.5 31.6667 9.99219C31.6667 4.47656 35.724 0 40.7143 0C45.7046 0 49.7619 4.47656 49.7619 9.98438C49.7619 15.4922 45.7046 19.9766 40.7143 19.9766ZM48.3412 11.3516C48.0796 11.2578 45.952 10.5625 43.5275 10.9844C44.5383 14.0469 44.9483 16.5469 45.026 17.0625C46.7649 15.7734 48.0019 13.7266 48.3412 11.3516ZM43.7325 17.8516C43.6194 17.1016 43.167 14.4922 42.0856 11.3828C42.0714 11.3906 42.0502 11.3984 42.0361 11.3984C37.6749 13.0781 36.1127 16.4141 35.9714 16.7266C37.279 17.8516 38.926 18.5234 40.7143 18.5234C41.7816 18.5312 42.8066 18.2891 43.7325 17.8516ZM34.9747 15.7031C35.1514 15.375 37.272 11.5 41.2586 10.0703C41.3575 10.0312 41.4635 10 41.5625 9.96875C41.3717 9.48438 41.1596 9 40.9334 8.52344C37.074 9.79688 33.3278 9.74219 32.9885 9.73438C32.9885 9.82031 32.9814 9.90625 32.9814 9.99219C32.9885 12.1875 33.7377 14.1875 34.9747 15.7031ZM33.151 8.25C33.4974 8.25781 36.6782 8.27344 40.2973 7.21094C39.0179 4.69531 37.6324 2.58594 37.4345 2.28125C35.2645 3.40625 33.6529 5.60938 33.151 8.25ZM38.9048 1.70312C39.1168 2.01562 40.5234 4.125 41.7887 6.69531C44.5383 5.55469 45.6975 3.83594 45.8389 3.61719C44.4747 2.28125 42.6793 1.46875 40.7143 1.46875C40.0923 1.46875 39.4844 1.55469 38.9048 1.70312ZM46.6942 4.60156C46.5316 4.84375 45.2381 6.67969 42.3824 7.96875C42.5592 8.375 42.7359 8.78906 42.8984 9.20312C42.955 9.35156 43.0115 9.5 43.0681 9.64062C45.641 9.28125 48.1927 9.85938 48.4472 9.91406C48.426 7.90625 47.7757 6.05469 46.6942 4.60156Z" fill="#B2215A"/>
</svg>
