<svg width="20" height="18" viewBox="0 0 20 18" fill="none" xmlns="http://www.w3.org/2000/svg">
<path d="M20 2.78686C19.2641 3.1132 18.4733 3.33377 17.6433 3.43297C18.4905 2.92512 19.1411 2.121 19.4475 1.16288C18.6547 1.63305 17.7765 1.97454 16.8419 2.1586C16.0933 1.36113 15.027 0.862793 13.8468 0.862793C11.5807 0.862793 9.74344 2.69995 9.74344 4.96594C9.74344 5.28753 9.7798 5.60071 9.84974 5.90102C6.43952 5.72991 3.41607 4.09634 1.3923 1.61388C1.0391 2.2199 0.836753 2.92476 0.836753 3.67672C0.836753 5.10026 1.56121 6.35619 2.6622 7.09199C1.98954 7.0707 1.35689 6.88613 0.803614 6.5788C0.803321 6.59592 0.803321 6.61311 0.803321 6.63038C0.803321 8.61845 2.21771 10.2769 4.09481 10.6538C3.75047 10.7476 3.38798 10.7977 3.01372 10.7977C2.74933 10.7977 2.49226 10.772 2.24178 10.7241C2.76389 12.3543 4.27923 13.5406 6.07476 13.5737C4.67047 14.6742 2.9012 15.3302 0.978821 15.3302C0.647646 15.3302 0.321007 15.3108 0 15.2729C1.81587 16.4371 3.97271 17.1164 6.28992 17.1164C13.8372 17.1164 17.9644 10.864 17.9644 5.44175C17.9644 5.26383 17.9604 5.08687 17.9525 4.91093C18.7542 4.33242 19.4499 3.60971 20 2.78686Z" fill="#55ACEE"/>
</svg>
